<?xml version="1.0" encoding="utf-8"?>
<!-- Generator: Adobe Illustrator 22.1.0, SVG Export Plug-In . SVG Version: 6.00 Build 0)  -->
<svg version="1.1" id="Layer_1" xmlns="http://www.w3.org/2000/svg" xmlns:xlink="http://www.w3.org/1999/xlink" x="0px" y="0px"
	 viewBox="0 0 360 360" style="enable-background:new 0 0 360 360;" xml:space="preserve">
<style type="text/css">
	.st0{fill:#FFFFFF;}
	.st1{fill:#D2FFDE;}
</style>
<path class="st0" d="M192.9,353.3h-22.2c-6.6,0-12-5.4-12-12V15.8c0-6.6,5.4-12,12-12h22.2c6.6,0,12,5.4,12,12v325.4
	C204.9,347.9,199.5,353.3,192.9,353.3z"/>
<g>
	<path class="st1" d="M177.2,33.3c13.7,6.6,20.7,17.9,25.3,32c1,3,2,7.1,4.2,9.5c0,0,0-63.3-0.4-64.4c-0.4-1.1-3-10.1-14.9-10.1
		c-2.8,0-14.9,0-31.7-0.1v28.1C165.8,29.1,171.7,30.7,177.2,33.3z"/>
	<path class="st1" d="M205.9,135.9c0,7.9-3.3,17.1-5.4,24.6c-8.1,29.3-24.9,55.4-40.8,80.9v117.9c21.6,0,36.5,0.1,36.5,0.1
		s11.5-2.2,10.4-16.8C205.5,328.1,205.9,135.9,205.9,135.9z M190.4,335.8c-2.8-0.4-6.3,0.1-8.7,1.7c-0.7,0.5-1.2,1.2-1.6,2
		c-0.2,0.3-0.9,2.2-0.9,2.2l-7.7,0.1l5.3-38.4l10.2-0.1l-3.8,26.2l7.5-0.1C190.7,329.4,190.4,335.8,190.4,335.8z"/>
	<path class="st1" d="M186.9,303.3l-10.2,0.1l-5.3,38.4l7.7-0.1c0,0,0.8-1.9,0.9-2.2c0.4-0.8,0.8-1.4,1.6-2c2.4-1.7,5.9-2.1,8.7-1.7
		l0.3-6.4l-7.5,0.1L186.9,303.3z"/>
	<g>
		<path class="st0" d="M193.2,306.1c-4.4-3-10.5-4-15.5-2c-5.4,2.2-7.5,8.4-8.7,13.6c-0.8,3.5-1.3,7-1.3,10.6c0,3.2-0.1,7.1,1.6,10
			c1.2,2.1,3.7,3.1,6,3.6c1.9,0.4,3.9,0.6,5.9,0.5c2.3-0.1,4.6-0.7,6.5-2.1c3-2.2,4.5-5.8,5.6-9.2c1.5-4.5,2.3-9.3,2.7-14.1
			C196.4,313.3,196.8,308.5,193.2,306.1z M186.3,314.6c-0.2,5-1.3,9.8-2,14.6c-0.3,2.3-1,7.2-4.2,7.2c-3,0-2.7-4-2.6-6
			c0.1-3.1,0.4-6.3,0.9-9.4c0.5-3.3,0.4-6.9,2.3-9.8c0.4-0.7,1-1.3,1.7-1.6C186,307.7,186.4,312.1,186.3,314.6z"/>
	</g>
</g>
</svg>
