<?xml version="1.0" encoding="utf-8"?>
<!-- Generator: Adobe Illustrator 22.1.0, SVG Export Plug-In . SVG Version: 6.00 Build 0)  -->
<svg version="1.1" id="Layer_1" xmlns="http://www.w3.org/2000/svg" xmlns:xlink="http://www.w3.org/1999/xlink" x="0px" y="0px"
	 viewBox="0 0 360 360" style="enable-background:new 0 0 360 360;" xml:space="preserve">
<style type="text/css">
	.st0{fill:none;}
	.st1{fill:#00ACEC;}
</style>
<g>
	<path class="st0" d="M138.6,329.9c20.3-5.7,41.1-19.6,56.6-33.5c17.4-15.6,31.7-33.9,44-53.6c0.2-0.3,0.4-0.6,0.5-0.9V28.7
		c-7.3-0.8-14.8-0.3-21.8,1.7c-20.3,5.7-41.1,19.6-56.6,33.5c-16.1,14.4-29.5,31.2-41.2,49.2v218.8
		C126.4,332.2,132.7,331.6,138.6,329.9z M142.1,132.3c9.5,1.4,21.2-0.2,29.2-5.8c2.5-1.7,4-3.9,5.2-6.6c0.5-1.1,3.1-7.3,3.1-7.3
		l26-0.4l-17.8,128.9l-34.2,0.4l12.6-88l-25.3,0.4C141,153.9,142.1,132.3,142.1,132.3z"/>
	<path class="st1" d="M161.4,63.9c15.6-14,36.4-27.8,56.6-33.5c7-2,14.4-2.5,21.8-1.7V0.5c-33-0.1-84.1-0.2-119.6-0.2v112.8
		C131.9,95,145.3,78.3,161.4,63.9z"/>
	<path class="st1" d="M239.3,242.8c-12.3,19.7-26.6,38-44,53.6c-15.6,13.9-36.4,27.8-56.6,33.5c-5.9,1.7-12.2,2.3-18.4,2v27.9
		c34.1,0.1,85.2,0.2,119.6,0.2V242C239.6,242.2,239.4,242.5,239.3,242.8z"/>
	<g>
		<path class="st1" d="M224.5,126.6c-4.2-7.3-13-10.8-20.9-12.4c-6.5-1.3-13.5-2.1-20.4-1.8c-8.1,0.4-16,2.5-22.5,7.2
			c-10.3,7.5-15.7,19.9-19.5,31.6c-5.1,15.7-8,32.1-9.3,48.5c-1,13-2.5,29.5,9.8,37.8c15.2,10.3,36.3,13.7,53.7,6.8
			c18.8-7.5,25.8-29,30.2-47c2.9-11.9,4.4-24.2,4.5-36.5C230.1,149.8,230.2,136.5,224.5,126.6z M196,153.7
			c-0.5,10.8-1.5,21.6-3,32.2c-1.6,11.4-1.4,23.9-8.1,33.8c-1.5,2.3-3.4,4.4-5.9,5.7c-12.4,6.5-13.7-8.5-13.5-17.2
			c0.5-17.1,4.4-33.6,6.9-50.4c1.2-8,3.5-24.8,14.7-24.6C197.6,133.3,196.3,147,196,153.7z"/>
	</g>
</g>
</svg>
