<?xml version="1.0" encoding="utf-8"?>
<!-- Generator: Adobe Illustrator 22.1.0, SVG Export Plug-In . SVG Version: 6.00 Build 0)  -->
<svg version="1.1" id="Layer_1" xmlns="http://www.w3.org/2000/svg" xmlns:xlink="http://www.w3.org/1999/xlink" x="0px" y="0px"
	 viewBox="0 0 360 360" style="enable-background:new 0 0 360 360;" xml:space="preserve">
<style type="text/css">
	.st0{fill:#FFF22D;}
</style>
<g>
	<path class="st0" d="M161.5,64.2c15.5-13.9,36.2-27.7,56.4-33.4c6.9-2,14.4-2.5,21.7-1.7v-28C206.7,1.1,155.8,1,120.5,0.9v112.3
		C132.1,95.2,145.5,78.5,161.5,64.2z"/>
	<path class="st0" d="M239,242.4c-12.3,19.6-26.5,37.9-43.8,53.4c-15.5,13.9-36.2,27.7-56.4,33.4c-5.9,1.7-12.1,2.3-18.3,2v27.8
		c34,0.1,84.9,0.2,119.1,0.2V241.5C239.4,241.8,239.2,242.1,239,242.4z"/>
	<g>
		<path class="st0" d="M224.3,126.7c-4.2-7.3-12.9-10.7-20.8-12.3c-6.4-1.3-13.4-2.1-20.3-1.8c-8.1,0.4-15.9,2.5-22.4,7.2
			c-10.2,7.5-15.7,19.8-19.4,31.5c-5.1,15.6-8,31.9-9.3,48.3c-1,12.9-2.5,29.4,9.8,37.7c15.2,10.3,36.2,13.6,53.4,6.8
			c18.7-7.4,25.7-28.9,30-46.8c2.9-11.9,4.4-24.1,4.5-36.3C229.9,149.8,230,136.6,224.3,126.7z M195.9,153.7
			c-0.5,10.7-1.5,21.5-3,32.1c-1.6,11.3-1.4,23.8-8,33.6c-1.5,2.3-3.4,4.4-5.9,5.6c-12.4,6.5-13.7-8.4-13.4-17.1
			c0.5-17,4.4-33.5,6.9-50.2c1.2-8,3.5-24.7,14.6-24.5C197.5,133.3,196.2,147,195.9,153.7z"/>
	</g>
</g>
</svg>
