<?xml version="1.0" encoding="utf-8"?>
<!-- Generator: Adobe Illustrator 22.1.0, SVG Export Plug-In . SVG Version: 6.00 Build 0)  -->
<svg version="1.1" id="Layer_1" xmlns="http://www.w3.org/2000/svg" xmlns:xlink="http://www.w3.org/1999/xlink" x="0px" y="0px"
	 viewBox="0 0 360 360" style="enable-background:new 0 0 360 360;" xml:space="preserve">
<style type="text/css">
	.st0{fill:#9E9226;}
	.st1{fill:#FFFFFF;}
</style>
<g>
	<path class="st0" d="M165.3,0.4c0,0-11.5,2.2-10.4,16.8c1.1,14.5,0.7,206.7,0.7,206.8c0-7.9,3.3-17.1,5.4-24.6
		c8.2-29.6,25.2-56,41.3-81.8c0.9-1.5,1.9-2.9,2.8-4.4V0.5C181.8,0.4,165.3,0.4,165.3,0.4z M186.2,51.4l-10.2,0.1l3.8-26.2l-7.5,0.1
		c0,0,0.3-6.4,0.3-6.4c2.8,0.4,6.3-0.1,8.7-1.7c0.7-0.5,1.2-1.2,1.6-2c0.2-0.3,0.9-2.2,0.9-2.2l7.7-0.1L186.2,51.4z"/>
	<path class="st0" d="M184.3,326.5c-13.7-6.6-20.7-17.9-25.3-32c-1-3-2-7.1-4.2-9.5c0,0,0,63.3,0.4,64.5c0.4,1.1,3,10.1,14.9,10.1
		c3,0,16.5,0,35.1,0.1v-27.9C198,331.4,190.8,329.7,184.3,326.5z"/>
	<path class="st0" d="M182.9,15.3c-0.4,0.8-0.8,1.4-1.6,2c-2.4,1.7-5.9,2.1-8.7,1.7c0,0-0.3,6.4-0.3,6.4l7.5-0.1l-3.8,26.2l10.2-0.1
		l5.3-38.4l-7.7,0.1C183.8,13.1,183,15,182.9,15.3z"/>
	<path class="st1" d="M183.8,8.4c-2.3,0.1-4.6,0.7-6.5,2.1c-3,2.2-4.5,5.8-5.7,9.2c-1.5,4.5-2.3,9.3-2.7,14.1
		c-0.3,3.8-0.7,8.6,2.8,11c4.4,3,10.5,4,15.5,2c5.4-2.2,7.5-8.4,8.7-13.6c0.8-3.5,1.3-7,1.3-10.6c0-3.2,0.1-7.1-1.6-10
		c-1.2-2.1-3.7-3.1-6-3.6C187.8,8.5,185.8,8.3,183.8,8.4z"/>
	<path class="st0" d="M184.9,14.4c-3.2,0-3.9,4.8-4.2,7.2c-0.7,4.9-1.8,9.7-2,14.6c-0.1,2.5,0.3,6.9,3.9,5c0.7-0.4,1.3-1,1.7-1.6
		c1.9-2.9,1.9-6.5,2.3-9.8c0.4-3.1,0.7-6.2,0.9-9.4C187.6,18.4,188,14.4,184.9,14.4z"/>
</g>
</svg>
