<?xml version="1.0" encoding="utf-8"?>
<!-- Generator: Adobe Illustrator 22.1.0, SVG Export Plug-In . SVG Version: 6.00 Build 0)  -->
<svg version="1.1" id="Layer_1" xmlns="http://www.w3.org/2000/svg" xmlns:xlink="http://www.w3.org/1999/xlink" x="0px" y="0px"
	 viewBox="0 0 360 360" style="enable-background:new 0 0 360 360;" xml:space="preserve">
<style type="text/css">
	.st0{fill:none;}
	.st1{fill:#33A457;}
</style>
<g>
	<path class="st0" d="M138.6,330.6c20.3-5.7,41.1-19.6,56.6-33.5c17.4-15.6,31.7-33.9,44-53.6c0.2-0.3,0.4-0.6,0.5-0.9V29.3
		C232.5,28.5,225,29,218,31c-20.3,5.7-41.1,19.6-56.6,33.5c-16.1,14.4-29.5,31.2-41.2,49.2v218.8
		C126.4,332.9,132.7,332.2,138.6,330.6z M142.1,133c9.5,1.4,21.2-0.2,29.2-5.8c2.5-1.7,4-3.9,5.2-6.6c0.5-1.1,3.1-7.3,3.1-7.3
		l26-0.4l-17.8,128.9l-34.2,0.4l12.6-88l-25.3,0.4C141,154.5,142.1,133,142.1,133z"/>
	<path class="st1" d="M161.4,64.5C177,50.6,197.8,36.7,218,31c7-2,14.4-2.5,21.8-1.7V1.1c-33-0.1-84.1-0.2-119.6-0.2v112.8
		C131.9,95.7,145.3,78.9,161.4,64.5z"/>
	<path class="st1" d="M239.3,243.4c-12.3,19.7-26.6,38-44,53.6c-15.6,13.9-36.4,27.8-56.6,33.5c-5.9,1.7-12.2,2.3-18.4,2v27.9
		c34.1,0.1,85.2,0.2,119.6,0.2v-118C239.6,242.9,239.4,243.2,239.3,243.4z"/>
	<path class="st1" d="M153.6,242.2l34.2-0.4l17.8-128.9l-26,0.4c0,0-2.6,6.2-3.1,7.3c-1.3,2.7-2.7,4.8-5.2,6.6
		c-8,5.6-19.7,7.2-29.2,5.8l-1.1,21.5l25.3-0.4L153.6,242.2z"/>
</g>
</svg>
