<?xml version="1.0" encoding="utf-8"?>
<!-- Generator: Adobe Illustrator 22.1.0, SVG Export Plug-In . SVG Version: 6.00 Build 0)  -->
<svg version="1.1" id="Layer_1" xmlns="http://www.w3.org/2000/svg" xmlns:xlink="http://www.w3.org/1999/xlink" x="0px" y="0px"
	 viewBox="0 0 360 360" style="enable-background:new 0 0 360 360;" xml:space="preserve">
<style type="text/css">
	.st0{fill:#FFF22D;}
</style>
<g>
	<path class="st0" d="M161.5,64.2c15.5-13.9,36.2-27.7,56.4-33.4c6.9-2,14.4-2.5,21.7-1.7v-28C206.7,1.1,155.8,1,120.5,0.9v112.3
		C132.1,95.2,145.5,78.5,161.5,64.2z"/>
	<path class="st0" d="M239,242.4c-12.3,19.6-26.5,37.9-43.8,53.4c-15.5,13.9-36.2,27.7-56.4,33.4c-5.9,1.7-12.1,2.3-18.3,2v27.8
		c34,0.1,84.9,0.2,119.1,0.2V241.5C239.4,241.8,239.2,242.1,239,242.4z"/>
	<path class="st0" d="M153.7,241.2l34-0.4l17.8-128.4l-25.9,0.4c0,0-2.6,6.2-3.1,7.3c-1.3,2.7-2.7,4.8-5.2,6.5
		c-8,5.5-19.7,7.2-29.1,5.8c0,0-1.1,21.5-1.1,21.5l25.2-0.4L153.7,241.2z"/>
</g>
</svg>
