<?xml version="1.0" encoding="utf-8"?>
<!-- Generator: Adobe Illustrator 22.1.0, SVG Export Plug-In . SVG Version: 6.00 Build 0)  -->
<svg version="1.1" id="Layer_1" xmlns="http://www.w3.org/2000/svg" xmlns:xlink="http://www.w3.org/1999/xlink" x="0px" y="0px"
	 viewBox="0 0 360 360" style="enable-background:new 0 0 360 360;" xml:space="preserve">
<style type="text/css">
	.st0{fill:#9E9226;}
	.st1{fill:#FFFFFF;}
</style>
<g>
	<path class="st0" d="M165.3,0c0,0-11.6,2.2-10.5,16.8c1.1,14.6,0.7,207.2,0.7,207.2c0-7.9,3.3-17.1,5.4-24.6
		c8.2-29.7,25.3-56.1,41.4-82c0.9-1.5,1.9-2.9,2.8-4.4V0.1C181.9,0.1,165.3,0,165.3,0z M186.3,51.2l-10.2,0.1l3.8-26.3l-7.5,0.1
		c0,0,0.3-6.4,0.3-6.4c2.8,0.4,6.3-0.1,8.7-1.7c0.7-0.5,1.2-1.2,1.6-2c0.2-0.3,0.9-2.2,0.9-2.2l7.8-0.1L186.3,51.2z"/>
	<path class="st0" d="M184.3,326.9c-13.8-6.6-20.8-18-25.4-32c-1-3-2-7.1-4.2-9.6c0,0,0,63.5,0.4,64.6s3,10.1,14.9,10.1
		c3,0,16.6,0,35.2,0.1v-27.9C198,331.8,190.8,330.1,184.3,326.9z"/>
	<path class="st0" d="M182.9,15c-0.4,0.8-0.8,1.4-1.6,2c-2.4,1.7-5.9,2.1-8.7,1.7c0,0-0.3,6.4-0.3,6.4l7.5-0.1l-3.8,26.3l10.2-0.1
		l5.3-38.5l-7.8,0.1C183.8,12.8,183,14.7,182.9,15z"/>
	<path class="st0" d="M185,14.1c-3.2,0-3.9,4.8-4.2,7.2c-0.7,4.9-1.8,9.7-2,14.7c-0.1,2.5,0.3,6.9,3.9,5c0.7-0.4,1.3-1,1.7-1.6
		c1.9-2.9,1.9-6.5,2.3-9.8c0.4-3.1,0.7-6.2,0.9-9.4C187.6,18.1,188,14.1,185,14.1z"/>
	<path class="st1" d="M181.7,19.9l-7.5,0.1c0,0,0.3-6.4,0.3-6.4c2.8,0.4,6.3-0.1,8.7-1.7c0.7-0.5,1.2-1.2,1.6-2
		c0.2-0.3,0.9-2.2,0.9-2.2l7.8-0.1l-5.3,38.5L178,46.2L181.7,19.9z"/>
</g>
</svg>
