<?xml version="1.0" encoding="utf-8"?>
<!-- Generator: Adobe Illustrator 22.1.0, SVG Export Plug-In . SVG Version: 6.00 Build 0)  -->
<svg version="1.1" id="Layer_1" xmlns="http://www.w3.org/2000/svg" xmlns:xlink="http://www.w3.org/1999/xlink" x="0px" y="0px"
	 viewBox="0 0 360 360" style="enable-background:new 0 0 360 360;" xml:space="preserve">
<style type="text/css">
	.st0{fill:#FFFFFF;}
	.st1{fill:#AEF0FF;}
</style>
<path class="st0" d="M190.9,353.3h-22.2c-6.6,0-12-5.4-12-12V15.8c0-6.6,5.4-12,12-12h22.2c6.6,0,12,5.4,12,12v325.4
	C202.9,347.9,197.5,353.3,190.9,353.3z"/>
<g>
	<path class="st1" d="M174,33.4c13.8,6.6,20.7,17.9,25.3,32c1,3,2,7.1,4.2,9.6c0,0,0-63.4-0.4-64.5c-0.4-1.1-3-10.1-14.9-10.1
		c-2.8,0-14.9,0-31.8-0.1v28.2C162.5,29.1,168.5,30.7,174,33.4z"/>
	<path class="st1" d="M202.7,136.2c0,7.9-3.3,17.1-5.4,24.6c-8.1,29.3-24.9,55.5-40.9,81.1V360c21.6,0,36.6,0,36.6,0
		s11.6-2.2,10.4-16.8C202.4,328.7,202.7,136.2,202.7,136.2z"/>
	<path class="st0" d="M181.1,329.8c0,0,9.8-0.5,9.8-0.2s-0.4,3.4-1.4,5.3s-2.2,3.4-4,4.7c-3,2.1-7.7,2.4-11.3,2.1
		c-2.6-0.2-5.4-0.9-6.9-3.1c-6-8.8,5-17.4,10.9-22.4c0.9-0.7,3.9-3.7,3.9-3.7l-12.8-0.1l0.8-7l24.3,0.1c0.4,0.1-1.8,6.8-2.1,7.4
		c-2.1,4.2-5.6,7.1-9.3,9.8c-4.3,3.2-7.4,5.3-7.2,11.2c0.1,1.9,1.8,2.8,3.4,1.6c1-0.7,1.5-2.1,1.6-3.3
		C181,330.8,181.1,329.8,181.1,329.8z"/>
</g>
</svg>
