<?xml version="1.0" encoding="utf-8"?>
<!-- Generator: Adobe Illustrator 22.1.0, SVG Export Plug-In . SVG Version: 6.00 Build 0)  -->
<svg version="1.1" id="Layer_1" xmlns="http://www.w3.org/2000/svg" xmlns:xlink="http://www.w3.org/1999/xlink" x="0px" y="0px"
	 viewBox="0 0 360 360" style="enable-background:new 0 0 360 360;" xml:space="preserve">
<style type="text/css">
	.st0{fill:none;}
	.st1{fill:#33A457;}
</style>
<g>
	<path class="st0" d="M138.7,329.3c20.2-5.7,41-19.5,56.5-33.5c17.3-15.5,31.6-33.8,43.9-53.5c0.2-0.3,0.4-0.6,0.5-0.9V28.6
		c-7.3-0.8-14.8-0.3-21.7,1.7c-20.2,5.7-41,19.5-56.5,33.5c-16,14.4-29.5,31.1-41.1,49.1v218.4C126.5,331.6,132.8,331,138.7,329.3z
		 M142.2,132.1c9.4,1.4,21.1-0.2,29.1-5.8c2.5-1.7,4-3.9,5.2-6.6c0.5-1.1,3.1-7.3,3.1-7.3l26-0.4l-17.8,128.7l-34.1,0.4l12.6-87.9
		l-25.2,0.4C141,153.6,142.2,132.1,142.2,132.1z"/>
	<path class="st1" d="M161.4,63.8C177,49.8,197.7,36,218,30.3c7-2,14.4-2.5,21.7-1.7V0.5c-32.9-0.1-84-0.2-119.4-0.2v112.6
		C132,94.9,145.4,78.1,161.4,63.8z"/>
	<path class="st1" d="M239.2,242.4c-12.3,19.7-26.6,38-43.9,53.5c-15.6,13.9-36.3,27.8-56.5,33.5c-5.9,1.7-12.2,2.3-18.4,2v27.8
		c34.1,0.1,85.1,0.2,119.4,0.2V241.5C239.5,241.8,239.3,242.1,239.2,242.4z"/>
	<path class="st1" d="M176,156.2c0,0-34.9,1.7-34.9,0.7s1.4-12.3,5.1-19c3.6-6.7,7.7-12.3,14.2-16.9c10.8-7.6,27.4-8.5,40.3-7.6
		c9.2,0.6,19.2,3.1,24.7,11.2c21.5,31.4-17.9,61.9-39,79.8c-3.1,2.7-14,13-14,13l45.8,0.2l-2.9,25.1c0,0-86.7-0.2-86.8-0.2
		c-1.4-0.2,6.4-24.2,7.4-26.2c7.5-14.9,19.9-25.3,33.1-35.1c15.3-11.4,26.5-18.9,25.8-40.1c-0.2-6.6-6.5-10.1-12.1-5.9
		c-3.4,2.6-5.3,7.6-5.7,11.8C176.5,152.6,176,156.2,176,156.2z"/>
</g>
</svg>
