<?xml version="1.0" encoding="utf-8"?>
<!-- Generator: Adobe Illustrator 22.1.0, SVG Export Plug-In . SVG Version: 6.00 Build 0)  -->
<svg version="1.1" id="Layer_1" xmlns="http://www.w3.org/2000/svg" xmlns:xlink="http://www.w3.org/1999/xlink" x="0px" y="0px"
	 viewBox="0 0 360 360" style="enable-background:new 0 0 360 360;" xml:space="preserve">
<style type="text/css">
	.st0{fill:#FFF22D;}
</style>
<g>
	<path class="st0" d="M161.5,64.2c15.5-13.9,36.2-27.7,56.4-33.4c6.9-2,14.4-2.5,21.7-1.7v-28C206.7,1.1,155.8,1,120.5,0.9v112.3
		C132.1,95.2,145.5,78.5,161.5,64.2z"/>
	<path class="st0" d="M239,242.4c-12.3,19.6-26.5,37.9-43.8,53.4c-15.5,13.9-36.2,27.7-56.4,33.4c-5.9,1.7-12.1,2.3-18.3,2v27.8
		c34,0.1,84.9,0.2,119.1,0.2V241.5C239.4,241.8,239.2,242.1,239,242.4z"/>
	<path class="st0" d="M175.1,156.4c0,0-34.9,1.7-34.9,0.7s1.4-12.3,5-19s7.7-12.3,14.2-16.8c10.8-7.6,27.3-8.4,40.2-7.6
		c9.2,0.6,19.1,3.1,24.7,11.1c21.4,31.3-17.8,61.8-38.9,79.6c-3.1,2.6-13.9,13-13.9,13l45.7,0.2l-2.9,25c0,0-86.5-0.2-86.5-0.2
		c-1.4-0.2,6.3-24.2,7.3-26.2c7.5-14.9,19.8-25.2,33-35c15.3-11.4,26.5-18.9,25.8-40c-0.2-6.6-6.5-10.1-12.1-5.9
		c-3.4,2.5-5.3,7.6-5.7,11.8C175.6,152.8,175.1,156.4,175.1,156.4z"/>
</g>
</svg>
