<?xml version="1.0" encoding="utf-8"?>
<!-- Generator: Adobe Illustrator 22.1.0, SVG Export Plug-In . SVG Version: 6.00 Build 0)  -->
<svg version="1.1" id="Layer_1" xmlns="http://www.w3.org/2000/svg" xmlns:xlink="http://www.w3.org/1999/xlink" x="0px" y="0px"
	 viewBox="0 0 360 360" style="enable-background:new 0 0 360 360;" xml:space="preserve">
<style type="text/css">
	.st0{fill:#9E9226;}
	.st1{fill:#FFFFFF;}
</style>
<g>
	<path class="st0" d="M165.3,0.1c0,0-11.6,2.2-10.4,16.8c1.1,14.5,0.7,207,0.7,207.1c0-7.9,3.3-17.1,5.4-24.6
		c8.2-29.6,25.3-56.1,41.4-81.9c0.9-1.5,1.9-2.9,2.8-4.4V0.2C181.9,0.2,165.3,0.1,165.3,0.1z M186.2,51.2l-10.2,0.1l3.8-26.3
		l-7.5,0.1c0,0,0.3-6.4,0.3-6.4c2.8,0.4,6.3-0.1,8.7-1.7c0.7-0.5,1.2-1.2,1.6-2c0.2-0.3,0.9-2.2,0.9-2.2l7.8-0.1L186.2,51.2z"/>
	<path class="st0" d="M184.3,326.7c-13.8-6.6-20.7-17.9-25.3-32c-1-3-2-7.1-4.2-9.6c0,0,0,63.4,0.4,64.5s3,10.1,14.9,10.1
		c3,0,16.5,0,35.2,0.1V332C198,331.6,190.8,329.9,184.3,326.7z"/>
	<path class="st0" d="M182.9,15.1c-0.4,0.8-0.8,1.4-1.6,2c-2.4,1.7-5.9,2.1-8.7,1.7c0,0-0.3,6.4-0.3,6.4l7.5-0.1l-3.8,26.3l10.2-0.1
		l5.3-38.4l-7.8,0.1C183.8,12.9,183,14.8,182.9,15.1z"/>
	<path class="st0" d="M184.9,14.1c-3.2,0-3.9,4.8-4.2,7.2c-0.7,4.9-1.8,9.7-2,14.7c-0.1,2.5,0.3,6.9,3.9,5c0.7-0.4,1.3-1,1.7-1.6
		c1.9-2.9,1.9-6.5,2.3-9.8c0.4-3.1,0.7-6.2,0.9-9.4C187.6,18.2,188,14.2,184.9,14.1z"/>
	<path class="st1" d="M180.1,20.8c0,0-9.8,0.5-9.8,0.2s0.4-3.4,1.4-5.3s2.2-3.4,4-4.7c3-2.1,7.7-2.4,11.3-2.1
		c2.6,0.2,5.4,0.9,6.9,3.1c6,8.8-5,17.4-10.9,22.4c-0.9,0.7-3.9,3.7-3.9,3.7L192,38l-0.8,7c0,0-24.3-0.1-24.3-0.1
		c-0.4-0.1,1.8-6.8,2.1-7.4c2.1-4.2,5.6-7.1,9.3-9.8c4.3-3.2,7.4-5.3,7.2-11.2c-0.1-1.9-1.8-2.8-3.4-1.6c-1,0.7-1.5,2.1-1.6,3.3
		C180.3,19.7,180.1,20.8,180.1,20.8z"/>
</g>
</svg>
