<?xml version="1.0" encoding="utf-8"?>
<!-- Generator: Adobe Illustrator 22.1.0, SVG Export Plug-In . SVG Version: 6.00 Build 0)  -->
<svg version="1.1" id="Layer_1" xmlns="http://www.w3.org/2000/svg" xmlns:xlink="http://www.w3.org/1999/xlink" x="0px" y="0px"
	 viewBox="0 0 360 360" style="enable-background:new 0 0 360 360;" xml:space="preserve">
<style type="text/css">
	.st0{fill:#FFF22D;}
</style>
<g>
	<path class="st0" d="M161.5,64.2c15.5-13.9,36.2-27.7,56.4-33.4c6.9-2,14.4-2.5,21.7-1.7v-28C206.7,1.1,155.8,1,120.5,0.9v112.3
		C132.1,95.2,145.5,78.5,161.5,64.2z"/>
	<path class="st0" d="M239,242.4c-12.3,19.6-26.5,37.9-43.8,53.4c-15.5,13.9-36.2,27.7-56.4,33.4c-5.9,1.7-12.1,2.3-18.3,2v27.8
		c34,0.1,84.9,0.2,119.1,0.2V241.5C239.4,241.8,239.2,242.1,239,242.4z"/>
	<path class="st0" d="M177.9,148.5c0,0-31.5,0.4-31.5,0.4c0.7-11.1,5.1-20.3,12.8-28.3c7.7-8,18.8-10.9,29.6-11.2
		c12.7-0.4,32.4-0.2,38.4,13.5c2.8,6.3,3,14.5,2.6,21.3c-0.3,5.2-1.3,10.6-4,15.1c-4,6.6-11.7,9.6-17.8,13.6c1.2,1,3.8,1.3,5.4,2
		c7.2,3.2,10.5,10.1,11.1,17.8c0.8,11.7-2.5,23.9-9.6,33.2c-8.2,10.8-19.8,14.6-32.9,15.7c-3.4,0.3-6.9,0.5-10.3,0.7
		c-6.6,0.4-14,0-20-2.9c-7.7-3.7-13.4-11.4-14.7-19.8c-0.9-6-0.1-12.5,0-18.5l32.6,0.4c0,0,0,13.1,0,13.2c0,7.1,7.7,9.5,13.3,6.4
		c5.2-2.8,7.3-8.9,8.3-14.4c1.7-9.5,1.6-22.9-11.5-22.9c-4.5,0-8.2,0.4-8.2,0.4s1.3-19.9,1.3-20.5c0-0.2,10.2-0.4,11-0.5
		c5-0.2,9.2-1.8,11.2-7.1c2.3-6.2,2.9-13,1.4-19.4c-0.5-2-1.4-4-2.9-5.5c-2-1.9-5.1-1.3-7-0.6C180.6,133,178.5,142.3,177.9,148.5z"
		/>
</g>
</svg>
