<?xml version="1.0" encoding="utf-8"?>
<!-- Generator: Adobe Illustrator 22.1.0, SVG Export Plug-In . SVG Version: 6.00 Build 0)  -->
<svg version="1.1" id="Layer_1" xmlns="http://www.w3.org/2000/svg" xmlns:xlink="http://www.w3.org/1999/xlink" x="0px" y="0px"
	 viewBox="0 0 360 360" style="enable-background:new 0 0 360 360;" xml:space="preserve">
<style type="text/css">
	.st0{fill:#9E9226;}
	.st1{fill:#FFFFFF;}
</style>
<g>
	<path class="st0" d="M165.3,0.3c0,0-11.6,2.2-10.4,16.8c1.1,14.5,0.7,206.8,0.7,206.8c0-7.9,3.3-17.1,5.4-24.6
		c8.2-29.6,25.3-56,41.4-81.8c0.9-1.5,1.9-2.9,2.8-4.4V0.4C181.8,0.4,165.3,0.3,165.3,0.3z M186.2,51.4l-10.2,0.1l3.8-26.2l-7.5,0.1
		c0,0,0.3-6.4,0.3-6.4c2.8,0.4,6.3-0.1,8.7-1.7c0.7-0.5,1.2-1.2,1.6-2c0.2-0.3,0.9-2.2,0.9-2.2l7.7-0.1L186.2,51.4z"/>
	<path class="st0" d="M184.3,326.6c-13.7-6.6-20.7-17.9-25.3-32c-1-3-2-7.1-4.2-9.5c0,0,0,63.3,0.4,64.5c0.4,1.1,3,10.1,14.9,10.1
		c3,0,16.5,0,35.1,0.1v-27.9C198,331.4,190.8,329.7,184.3,326.6z"/>
	<path class="st0" d="M182.9,15.3c-0.4,0.8-0.8,1.4-1.6,2c-2.4,1.7-5.9,2.1-8.7,1.7c0,0-0.3,6.4-0.3,6.4l7.5-0.1l-3.8,26.2l10.2-0.1
		l5.3-38.4l-7.7,0.1C183.8,13.1,183,14.9,182.9,15.3z"/>
	<path class="st1" d="M180.4,24.4c0,0-8.6,0.1-8.6,0.1c0.2-3,1.4-5.6,3.5-7.7c2.1-2.2,5.2-3,8.1-3.1c3.5-0.1,8.9-0.1,10.5,3.7
		c0.8,1.7,0.8,4,0.7,5.8c-0.1,1.4-0.4,2.9-1.1,4.1c-1.1,1.8-3.2,2.6-4.9,3.7c0.3,0.3,1.1,0.4,1.5,0.6c2,0.9,2.9,2.8,3,4.9
		c0.2,3.2-0.7,6.5-2.6,9.1c-2.2,3-5.4,4-9,4.3c-0.9,0.1-1.9,0.1-2.8,0.2c-1.8,0.1-3.8,0-5.5-0.8c-2.1-1-3.7-3.1-4-5.4
		c-0.2-1.6,0-3.4,0-5.1l8.9,0.1c0,0,0,3.6,0,3.6c0,1.9,2.1,2.6,3.6,1.8c1.4-0.8,2-2.4,2.3-3.9c0.5-2.6,0.4-6.3-3.1-6.3
		c-1.2,0-2.2,0.1-2.2,0.1s0.3-5.5,0.4-5.6c0-0.1,2.8-0.1,3-0.1c1.4-0.1,2.5-0.5,3.1-2c0.6-1.7,0.8-3.6,0.4-5.3
		c-0.1-0.6-0.4-1.1-0.8-1.5c-0.5-0.5-1.4-0.4-1.9-0.2C181.1,20.2,180.5,22.8,180.4,24.4z"/>
</g>
</svg>
