<?xml version="1.0" encoding="utf-8"?>
<!-- Generator: Adobe Illustrator 22.1.0, SVG Export Plug-In . SVG Version: 6.00 Build 0)  -->
<svg version="1.1" id="Layer_1" xmlns="http://www.w3.org/2000/svg" xmlns:xlink="http://www.w3.org/1999/xlink" x="0px" y="0px"
	 viewBox="0 0 360 360" style="enable-background:new 0 0 360 360;" xml:space="preserve">
<style type="text/css">
	.st0{fill:#FFFFFF;}
	.st1{fill:#D2FFDE;}
</style>
<path class="st0" d="M190.9,353.3h-22.2c-6.6,0-12-5.4-12-12V15.8c0-6.6,5.4-12,12-12h22.2c6.6,0,12,5.4,12,12v325.4
	C202.9,347.9,197.5,353.3,190.9,353.3z"/>
<g>
	<path class="st1" d="M174,33.3c13.7,6.6,20.7,17.9,25.3,32c1,3,2,7.1,4.2,9.5c0,0,0-63.3-0.4-64.4c-0.4-1.1-3-10.1-14.9-10.1
		c-2.8,0-14.9,0-31.7-0.1v28.1C162.6,29.1,168.5,30.7,174,33.3z"/>
	<path class="st1" d="M202.7,135.9c0,7.9-3.3,17.1-5.4,24.6c-8.1,29.3-24.9,55.4-40.8,80.9v117.9c21.6,0,36.5,0.1,36.5,0.1
		s11.5-2.2,10.4-16.8C202.3,328.1,202.7,135.9,202.7,135.9z M187.2,335.8c-2.8-0.4-6.3,0.1-8.7,1.7c-0.7,0.5-1.2,1.2-1.6,2
		c-0.2,0.3-0.9,2.2-0.9,2.2l-7.7,0.1l5.3-38.4l10.2-0.1l-3.8,26.2l7.5-0.1C187.5,329.4,187.2,335.8,187.2,335.8z"/>
	<path class="st1" d="M183.7,303.3l-10.2,0.1l-5.3,38.4l7.7-0.1c0,0,0.8-1.9,0.9-2.2c0.4-0.8,0.8-1.4,1.6-2c2.4-1.7,5.9-2.1,8.7-1.7
		l0.3-6.4l-7.5,0.1L183.7,303.3z"/>
	<g>
		<path class="st0" d="M179.5,309.5l0.3-7.3l-9,0.1l-0.5,7l-3.9,0.1l-0.4,6.8c0,0,3.6-0.2,3.4,0.1c-0.2,0.3-3.7,23.8-3.7,23.8
			s10.8,0.3,11.1,0.1c0.3-0.2,15.6-23.1,15.6-23.1l1-7.9L179.5,309.5z M176.6,329.7c0,0,0.1-12.8,0.2-13.1c0.1-0.3,8.4,0,8.4,0
			S176.8,329.2,176.6,329.7z"/>
	</g>
</g>
</svg>
