<?xml version="1.0" encoding="utf-8"?>
<!-- Generator: Adobe Illustrator 22.1.0, SVG Export Plug-In . SVG Version: 6.00 Build 0)  -->
<svg version="1.1" id="Layer_1" xmlns="http://www.w3.org/2000/svg" xmlns:xlink="http://www.w3.org/1999/xlink" x="0px" y="0px"
	 viewBox="0 0 360 360" style="enable-background:new 0 0 360 360;" xml:space="preserve">
<style type="text/css">
	.st0{fill:#FFF22D;}
</style>
<g>
	<path class="st0" d="M161.5,64.2c15.5-13.9,36.2-27.7,56.4-33.4c6.9-2,14.4-2.5,21.7-1.7v-28C206.7,1.1,155.8,1,120.5,0.9v112.3
		C132.1,95.2,145.5,78.5,161.5,64.2z"/>
	<path class="st0" d="M239,242.4c-12.3,19.6-26.5,37.9-43.8,53.4c-15.5,13.9-36.2,27.7-56.4,33.4c-5.9,1.7-12.1,2.3-18.3,2v27.8
		c34,0.1,84.9,0.2,119.1,0.2V241.5C239.4,241.8,239.2,242.1,239,242.4z"/>
	<path class="st0" d="M214.8,195.5c0.7-1.1,12.5-79.5,12.5-79.5s-36-1.1-37.1-0.4c-1.1,0.7-52.1,77.4-52.1,77.4l-3.2,26.4l46-0.7
		l-1.1,24.2l29.9-0.4l1.8-23.5l13.2-0.4l1.4-22.8C226.2,195.8,214.1,196.6,214.8,195.5z M189.9,195.1c-0.4,1.1-28.2,0-28.2,0
		s28.2-42.4,28.9-43.9C190.6,151.3,190.2,194.1,189.9,195.1z"/>
</g>
</svg>
