<?xml version="1.0" encoding="utf-8"?>
<!-- Generator: Adobe Illustrator 22.1.0, SVG Export Plug-In . SVG Version: 6.00 Build 0)  -->
<svg version="1.1" id="Layer_1" xmlns="http://www.w3.org/2000/svg" xmlns:xlink="http://www.w3.org/1999/xlink" x="0px" y="0px"
	 viewBox="0 0 360 360" style="enable-background:new 0 0 360 360;" xml:space="preserve">
<style type="text/css">
	.st0{fill:#266D3B;}
	.st1{fill:#FFFFFF;}
</style>
<g>
	<path class="st0" d="M165.3,0.3c0,0-11.6,2.2-10.5,16.8s0.7,207.4,0.7,207.4c0-7.9,3.3-17.1,5.4-24.6c8.2-29.7,25.3-56.2,41.5-82.1
		c0.9-1.5,1.9-2.9,2.8-4.4V0.4C181.9,0.3,165.3,0.3,165.3,0.3z M186.3,51.5L176,51.6l3.8-26.3l-7.5,0.1l0.3-6.4
		c2.8,0.4,6.3-0.1,8.7-1.7c0.7-0.5,1.2-1.2,1.6-2c0.2-0.3,0.9-2.2,0.9-2.2l7.8-0.1L186.3,51.5z"/>
	<path class="st0" d="M184.3,327.5c-13.8-6.6-20.8-18-25.4-32.1c-1-3-2-7.1-4.2-9.6c0,0,0,63.5,0.4,64.7c0.4,1.1,3,10.1,14.9,10.1
		c3,0,16.6,0,35.2,0.1v-27.9C198,332.3,190.8,330.6,184.3,327.5z"/>
	<path class="st0" d="M182.9,15.2c-0.4,0.8-0.8,1.4-1.6,2c-2.4,1.7-5.9,2.1-8.7,1.7l-0.3,6.4l7.5-0.1L176,51.6l10.2-0.1l5.3-38.5
		l-7.8,0.1C183.8,13.1,183,14.9,182.9,15.2z"/>
	<g>
		<path class="st1" d="M196.6,11.1c0,0-10.8-0.3-11.1-0.1s-15.6,23.2-15.6,23.2l-1,7.9l13.8-0.2l-0.3,7.3l9-0.1l0.5-7.1l4-0.1
			l0.4-6.9c0,0-3.6,0.2-3.4-0.1C193,34.6,196.6,11.1,196.6,11.1z"/>
		<path class="st0" d="M185.5,21.7c-0.2,0.4-8.7,13.2-8.7,13.2s8.3,0.3,8.5,0C185.4,34.5,185.5,21.7,185.5,21.7z"/>
	</g>
</g>
</svg>
