<?xml version="1.0" encoding="utf-8"?>
<!-- Generator: Adobe Illustrator 22.1.0, SVG Export Plug-In . SVG Version: 6.00 Build 0)  -->
<svg version="1.1" id="Layer_1" xmlns="http://www.w3.org/2000/svg" xmlns:xlink="http://www.w3.org/1999/xlink" x="0px" y="0px"
	 viewBox="0 0 360 360" style="enable-background:new 0 0 360 360;" xml:space="preserve">
<style type="text/css">
	.st0{fill:#FFFFFF;}
	.st1{fill:#FFF69F;}
</style>
<path class="st0" d="M190.9,353.3h-22.2c-6.6,0-12-5.4-12-12V15.8c0-6.6,5.4-12,12-12h22.2c6.6,0,12,5.4,12,12v325.4
	C202.9,347.9,197.5,353.3,190.9,353.3z"/>
<g>
	<path class="st1" d="M174,33.7c13.7,6.6,20.7,17.9,25.3,31.9c1,3,2,7,4.2,9.5c0,0,0-63.2-0.4-64.3c-0.4-1.1-3-10-14.9-10
		c-2.8,0-14.9,0-31.7-0.1v28.1C162.6,29.4,168.6,31,174,33.7z"/>
	<path class="st1" d="M202.7,136.1c0,7.9-3.3,17-5.4,24.5c-8.1,29.2-24.8,55.3-40.7,80.8v117.8c21.5,0,36.5,0.1,36.5,0.1
		s11.5-2.2,10.4-16.7C202.3,328.1,202.7,136.2,202.7,136.1z M187.2,335.7c-2.8-0.4-6.3,0.1-8.7,1.7c-0.7,0.5-1.2,1.2-1.6,2
		c-0.2,0.3-0.9,2.2-0.9,2.2l-7.7,0.1l5.3-38.3l10.2-0.1l-3.8,26.2l7.5-0.1C187.5,329.3,187.2,335.7,187.2,335.7z"/>
	<path class="st1" d="M183.7,303.3l-10.2,0.1l-5.3,38.3l7.7-0.1c0,0,0.8-1.9,0.9-2.2c0.4-0.8,0.8-1.4,1.6-2c2.4-1.7,5.9-2.1,8.7-1.7
		l0.3-6.4l-7.5,0.1L183.7,303.3z"/>
	<path class="st0" d="M164.3,340.3l1.1-7l15.2,0.2l1.4-7.5c-2.1,2.9-7.1,3.7-10.3,2.8c-6.5-1.9-6.5-7.8-5.6-13.5
		c0.8-4.9,2.6-8.7,7-11.2c4.1-2.3,9.4-3.1,13.9-1.4c3.3,1.2,4.6,3.3,5.4,6.5c0.2,0.6,0,5,0,5h-9.6c0,0,0.3-3.7,0.2-4.4
		c-0.4-1.9-2.8-2.6-4.2-1.3c-2.3,2.2-2.9,6.2-2.9,9.2c0,1.4,0,3.3,1.2,4.3c1.3,1,3.2,0.6,4-0.7c1.4-2.1,1.4-2.1,1.4-2.1l9,0.6
		l-3.7,21L164.3,340.3z"/>
</g>
</svg>
