<?xml version="1.0" encoding="utf-8"?>
<!-- Generator: Adobe Illustrator 22.1.0, SVG Export Plug-In . SVG Version: 6.00 Build 0)  -->
<svg version="1.1" id="Layer_1" xmlns="http://www.w3.org/2000/svg" xmlns:xlink="http://www.w3.org/1999/xlink" x="0px" y="0px"
	 viewBox="0 0 360 360" style="enable-background:new 0 0 360 360;" xml:space="preserve">
<style type="text/css">
	.st0{fill:#FFF22D;}
</style>
<g>
	<path class="st0" d="M161.5,64.2c15.5-13.9,36.2-27.7,56.4-33.4c6.9-2,14.4-2.5,21.7-1.7v-28C206.7,1.1,155.8,1,120.5,0.9v112.3
		C132.1,95.2,145.5,78.5,161.5,64.2z"/>
	<path class="st0" d="M239,242.4c-12.3,19.6-26.5,37.9-43.8,53.4c-15.5,13.9-36.2,27.7-56.4,33.4c-5.9,1.7-12.1,2.3-18.3,2v27.8
		c34,0.1,84.9,0.2,119.1,0.2V241.5C239.4,241.8,239.2,242.1,239,242.4z"/>
	<path class="st0" d="M227.4,113.8l-3.6,23.6l-51.2-0.5L168,162c7-9.6,23.9-12.5,34.6-9.4c22,6.3,22,26.1,18.9,45.3
		c-2.7,16.4-8.6,29.3-23.5,37.7c-13.8,7.8-31.7,10.3-46.8,4.7c-11.2-4.1-15.3-11.2-18-21.9c-0.5-2,0-16.9,0-16.9h32.3
		c0,0-1,12.3-0.5,14.8c1.2,6.2,9.5,8.8,14.1,4.3c7.6-7.4,9.7-20.7,9.6-30.8c0-4.7,0-11-4-14.3c-4.3-3.5-10.6-2.1-13.5,2.4
		c-4.6,7.2-4.6,7.2-4.6,7.2l-30.2-2l12.3-70.7L227.4,113.8z"/>
</g>
</svg>
