<?xml version="1.0" encoding="utf-8"?>
<!-- Generator: Adobe Illustrator 22.1.0, SVG Export Plug-In . SVG Version: 6.00 Build 0)  -->
<svg version="1.1" id="Layer_1" xmlns="http://www.w3.org/2000/svg" xmlns:xlink="http://www.w3.org/1999/xlink" x="0px" y="0px"
	 viewBox="0 0 360 360" style="enable-background:new 0 0 360 360;" xml:space="preserve">
<style type="text/css">
	.st0{fill:#AEF0FF;}
	.st1{fill:#FFFFFF;}
</style>
<g>
	<path class="st0" d="M174,33.4c13.8,6.6,20.7,17.9,25.3,32c1,3,2,7.1,4.2,9.6c0,0,0-63.4-0.4-64.5c-0.4-1.1-3-10.1-14.9-10.1
		c-2.8,0-14.9,0-31.8-0.1v28.2C162.5,29.1,168.5,30.7,174,33.4z"/>
	<path class="st0" d="M202.7,136.2c0,7.9-3.3,17.1-5.4,24.6c-8.1,29.3-24.9,55.5-40.9,81.1V360c21.6,0,36.6,0,36.6,0
		s11.6-2.2,10.4-16.8C202.4,328.7,202.7,136.2,202.7,136.2z M187.2,336.4c-2.8-0.4-6.3,0.1-8.7,1.7c-0.7,0.5-1.2,1.2-1.6,2
		c-0.2,0.3-0.9,2.2-0.9,2.2l-7.8,0.1l5.3-38.4l10.2-0.1l-3.8,26.3l7.5-0.1C187.5,329.9,187.2,336.4,187.2,336.4z"/>
	<path class="st0" d="M183.7,303.8l-10.2,0.1l-5.3,38.4l7.8-0.1c0,0,0.8-1.9,0.9-2.2c0.4-0.8,0.8-1.4,1.6-2c2.4-1.7,5.9-2.1,8.7-1.7
		l0.3-6.4L180,330L183.7,303.8z"/>
	<polygon class="st1" points="169.7,300.1 192.2,300.1 192.2,294.7 170,294.7 	"/>
	<g>
		<path class="st1" d="M184.9,304.9c-4.6-0.9-12.2-1-15.2,3.5c-3.1,4.6-5.9,11.3-4.1,16.9c1.4,4.5,7.3,5,11.2,3.9
			c1.8-0.5,3.3-2.4,3.3-2.4c-0.1,3.7,0.3,10.1-4.8,10.1c-2.1,0-2.4-3.7-2.4-3.7l-8,0.1c-0.7,3.5-0.4,6.9,3.2,8.4
			c2.8,1.3,6.3,1.2,9.2,1c4.4-0.3,8.7-2.2,10.7-6.3c2.8-5.5,3.6-11.9,3.8-18C191.9,313,191.5,306.2,184.9,304.9z M180,321.7
			c-0.7,0.9-1.7,1.7-2.9,1.4c-0.9-0.2-1.4-0.8-1.8-1.5c-1.5-3.4,0.1-10.3,4.2-11.3c2.4-0.6,2.6,2.3,2.6,4.1
			C182.2,316.9,181.5,319.7,180,321.7z"/>
	</g>
</g>
</svg>
