<?xml version="1.0" encoding="utf-8"?>
<!-- Generator: Adobe Illustrator 22.1.0, SVG Export Plug-In . SVG Version: 6.00 Build 0)  -->
<svg version="1.1" id="Layer_1" xmlns="http://www.w3.org/2000/svg" xmlns:xlink="http://www.w3.org/1999/xlink" x="0px" y="0px"
	 viewBox="0 0 360 360" style="enable-background:new 0 0 360 360;" xml:space="preserve">
<style type="text/css">
	.st0{fill:#FFF69F;}
	.st1{fill:#FFFFFF;}
</style>
<g>
	<path class="st0" d="M174,33.7c13.7,6.6,20.7,17.9,25.3,31.9c1,3,2,7,4.2,9.5c0,0,0-63.2-0.4-64.3c-0.4-1.1-3-10-14.9-10
		c-2.8,0-14.9,0-31.7-0.1v28.1C162.6,29.4,168.6,31,174,33.7z"/>
	<path class="st0" d="M202.7,136.1c0,7.9-3.3,17-5.4,24.5c-8.1,29.2-24.8,55.3-40.7,80.8v117.8c21.5,0,36.5,0.1,36.5,0.1
		s11.5-2.2,10.4-16.7C202.3,328.1,202.7,136.2,202.7,136.1z M187.2,335.7c-2.8-0.4-6.3,0.1-8.7,1.7c-0.7,0.5-1.2,1.2-1.6,2
		c-0.2,0.3-0.9,2.2-0.9,2.2l-7.7,0.1l5.3-38.3l10.2-0.1l-3.8,26.2l7.5-0.1C187.5,329.3,187.2,335.7,187.2,335.7z"/>
	<path class="st0" d="M183.7,303.3l-10.2,0.1l-5.3,38.3l7.7-0.1c0,0,0.8-1.9,0.9-2.2c0.4-0.8,0.8-1.4,1.6-2c2.4-1.7,5.9-2.1,8.7-1.7
		c0,0,0.3-6.4,0.3-6.4l-7.5,0.1L183.7,303.3z"/>
	<polygon class="st1" points="169.7,299.6 192.2,299.6 192.2,294.2 170,294.2 	"/>
	<g>
		<path class="st1" d="M184.9,304.4c-4.6-0.9-12.2-0.9-15.2,3.5c-3.1,4.6-5.9,11.2-4.1,16.9c1.4,4.5,7.3,5,11.2,3.9
			c1.8-0.5,3.3-2.3,3.3-2.3c-0.1,3.7,0.3,10-4.8,10c-2.1,0-2.3-3.7-2.3-3.7l-8,0.1c-0.7,3.5-0.4,6.8,3.2,8.4c2.8,1.3,6.2,1.2,9.2,1
			c4.3-0.3,8.7-2.2,10.7-6.2c2.8-5.5,3.5-11.9,3.8-18C191.9,312.4,191.5,305.7,184.9,304.4z M180,321.2c-0.7,0.9-1.7,1.7-2.9,1.4
			c-0.9-0.2-1.4-0.8-1.8-1.5c-1.5-3.4,0.1-10.3,4.2-11.2c2.4-0.6,2.6,2.3,2.6,4.1C182.2,316.4,181.5,319.1,180,321.2z"/>
	</g>
</g>
</svg>
