<?xml version="1.0" encoding="utf-8"?>
<!-- Generator: Adobe Illustrator 22.1.0, SVG Export Plug-In . SVG Version: 6.00 Build 0)  -->
<svg version="1.1" id="Layer_1" xmlns="http://www.w3.org/2000/svg" xmlns:xlink="http://www.w3.org/1999/xlink" x="0px" y="0px"
	 viewBox="0 0 360 360" style="enable-background:new 0 0 360 360;" xml:space="preserve">
<style type="text/css">
	.st0{fill:#FFFFFF;}
	.st1{fill:none;}
	.st2{fill:#CC2229;}
</style>
<path class="st0" d="M227.9,360h-96.5c-6.6,0-12-5.4-12-12V17.8c0-6.6,5.4-12,12-12h96.5c6.6,0,12,5.4,12,12V348
	C239.9,354.6,234.5,360,227.9,360z"/>
<g>
	<path class="st1" d="M138.5,329.9c20.3-5.7,41.1-19.6,56.7-33.6c17.4-15.6,31.8-33.9,44.1-53.7c0.2-0.3,0.4-0.6,0.5-0.9V28.1
		c-7.3-0.8-14.8-0.3-21.8,1.7c-20.3,5.7-41.1,19.6-56.7,33.6c-16.1,14.4-29.6,31.2-41.3,49.3v219.2
		C126.3,332.2,132.6,331.5,138.5,329.9z M142,131.9c9.5,1.4,21.2-0.2,29.2-5.8c2.5-1.7,4-3.9,5.3-6.6c0.5-1.1,3.1-7.3,3.1-7.3
		l26.1-0.4L187.8,241l-34.2,0.4l12.7-88.2l-25.3,0.4C140.9,153.5,142,131.9,142,131.9z"/>
	<path class="st2" d="M161.4,63.4c15.6-14,36.5-27.9,56.7-33.6c7-2,14.5-2.5,21.8-1.7V-0.1c-33-0.1-84.3-0.2-119.8-0.2v113
		C131.8,94.6,145.3,77.8,161.4,63.4z"/>
	<path class="st2" d="M239.4,242.6c-12.3,19.8-26.7,38.1-44.1,53.7c-15.6,14-36.5,27.9-56.7,33.6c-5.9,1.7-12.2,2.3-18.4,2v27.9
		c34.2,0.1,85.4,0.2,119.8,0.2V241.7C239.7,242,239.5,242.3,239.4,242.6z"/>
	<polygon class="st2" points="207.5,253.8 133.8,253.8 133.8,264.7 206.5,264.7 	"/>
	<g>
		<path class="st2" d="M192.3,127.6c7.3,0,8.2,12.7,8.2,12.7l27.7-0.5c2.5-12.1,1.3-23.8-11-29.2c-9.8-4.4-21.7-4.2-32.1-3.4
			c-15.1,1.2-30.1,7.5-37.2,21.7c-9.6,19.2-12.3,41.4-13.1,62.5c-0.7,19.1,0.7,42.6,23.8,47c16.1,3,42.4,3.3,52.8-12
			c10.9-15.9,20.5-39.1,14.3-58.6c-5-15.7-25.4-17.3-38.8-13.5c-6.3,1.8-11.3,8.2-11.3,8.2C175.9,149.7,174.4,127.6,192.3,127.6z
			 M185.4,175.4c3,0.6,4.9,2.6,6.1,5.2c5.3,11.8-0.4,35.8-14.6,39c-8.5,1.9-9-8-9-14.1c0-8.6,2.3-18.2,7.4-25.3
			C177.7,177,181.2,174.5,185.4,175.4z"/>
	</g>
</g>
</svg>
