<?xml version="1.0" encoding="utf-8"?>
<!-- Generator: Adobe Illustrator 22.1.0, SVG Export Plug-In . SVG Version: 6.00 Build 0)  -->
<svg version="1.1" id="Layer_1" xmlns="http://www.w3.org/2000/svg" xmlns:xlink="http://www.w3.org/1999/xlink" x="0px" y="0px"
	 viewBox="0 0 360 360" style="enable-background:new 0 0 360 360;" xml:space="preserve">
<style type="text/css">
	.st0{fill:#FFF22D;}
</style>
<g>
	<path class="st0" d="M161.5,64.2c15.5-13.9,36.2-27.7,56.4-33.4c6.9-2,14.4-2.5,21.7-1.7v-28C206.7,1.1,155.8,1,120.5,0.9v112.3
		C132.1,95.2,145.5,78.5,161.5,64.2z"/>
	<path class="st0" d="M239,242.4c-12.3,19.6-26.5,37.9-43.8,53.4c-15.5,13.9-36.2,27.7-56.4,33.4c-5.9,1.7-12.1,2.3-18.3,2v27.8
		c34,0.1,84.9,0.2,119.1,0.2V241.5C239.4,241.8,239.2,242.1,239,242.4z"/>
	<polygon class="st0" points="207.3,253.6 134.1,253.6 134.1,264.3 206.3,264.3 	"/>
	<g>
		<path class="st0" d="M192.3,128.1c7.2,0,8.1,12.6,8.1,12.6l27.5-0.5c2.5-12,1.2-23.6-10.9-29c-9.7-4.3-21.6-4.2-31.9-3.4
			c-15,1.2-30,7.5-37,21.6c-9.5,19.1-12.3,41.1-13,62.2c-0.7,19,0.7,42.3,23.6,46.7c16,3,42.2,3.3,52.5-11.9
			c10.8-15.8,20.4-38.9,14.2-58.3c-4.9-15.6-25.3-17.2-38.6-13.4c-6.3,1.8-11.3,8.1-11.3,8.1C175.9,150.1,174.5,128.1,192.3,128.1z
			 M185.4,175.6c3,0.6,4.9,2.6,6.1,5.2c5.3,11.8-0.4,35.5-14.5,38.8c-8.4,1.9-8.9-8-8.9-14c0-8.6,2.3-18.1,7.4-25.1
			C177.7,177.2,181.2,174.7,185.4,175.6z"/>
	</g>
</g>
</svg>
