<?xml version="1.0" encoding="utf-8"?>
<!-- Generator: Adobe Illustrator 22.1.0, SVG Export Plug-In . SVG Version: 6.00 Build 0)  -->
<svg version="1.1" id="Layer_1" xmlns="http://www.w3.org/2000/svg" xmlns:xlink="http://www.w3.org/1999/xlink" x="0px" y="0px"
	 viewBox="0 0 360 360" style="enable-background:new 0 0 360 360;" xml:space="preserve">
<style type="text/css">
	.st0{fill:#266D3B;}
	.st1{fill:#FFFFFF;}
</style>
<g>
	<path class="st0" d="M165.3-0.4c0,0-11.6,2.2-10.5,16.8s0.7,207.4,0.7,207.4c0-7.9,3.3-17.1,5.4-24.6c8.2-29.7,25.3-56.2,41.5-82.1
		c0.9-1.5,1.9-2.9,2.8-4.4v-113C181.9-0.3,165.3-0.4,165.3-0.4z M186.3,50.8L176,50.9l3.8-26.3l-7.5,0.1l0.3-6.4
		c2.8,0.4,6.3-0.1,8.7-1.7c0.7-0.5,1.2-1.2,1.6-2c0.2-0.3,0.9-2.2,0.9-2.2l7.8-0.1L186.3,50.8z"/>
	<path class="st0" d="M184.3,326.8c-13.8-6.6-20.8-18-25.4-32.1c-1-3-2-7.1-4.2-9.6c0,0,0,63.5,0.4,64.7c0.4,1.1,3,10.1,14.9,10.1
		c3,0,16.6,0,35.2,0.1v-27.9C198,331.7,190.8,330,184.3,326.8z"/>
	<path class="st0" d="M182.9,14.6c-0.4,0.8-0.8,1.4-1.6,2c-2.4,1.7-5.9,2.1-8.7,1.7l-0.3,6.4l7.5-0.1L176,50.9l10.2-0.1l5.3-38.5
		l-7.8,0.1C183.8,12.4,183,14.3,182.9,14.6z"/>
	<polygon class="st1" points="191.6,53.3 169,53.3 169,58.7 191.3,58.7 	"/>
	<path class="st1" d="M196.5,20l-8,0.1c0,0-0.3-3.7-2.4-3.7c-5.2,0-4.7,6.4-4.8,10.1c0,0,1.4-1.8,3.3-2.4c3.9-1.1,9.8-0.6,11.2,3.9
		c1.8,5.6-1,12.3-4.1,16.9c-3,4.4-10.6,4.3-15.3,3.5c-6.7-1.3-7.1-8-6.9-13.6c0.2-6.1,1-12.5,3.8-18.1c2-4.1,6.4-5.9,10.8-6.3
		c3-0.2,6.4-0.3,9.3,1C196.8,13.1,197.2,16.5,196.5,20z"/>
	<path class="st0" d="M185.9,31.7c-0.3-0.8-0.9-1.3-1.8-1.5c-1.2-0.3-2.2,0.5-2.9,1.4c-1.5,2-2.1,4.8-2.1,7.3c0,1.7,0.1,4.6,2.6,4.1
		C185.8,42.1,187.4,35.2,185.9,31.7z"/>
</g>
</svg>
