<?xml version="1.0" encoding="utf-8"?>
<!-- Generator: Adobe Illustrator 22.1.0, SVG Export Plug-In . SVG Version: 6.00 Build 0)  -->
<svg version="1.1" id="Layer_1" xmlns="http://www.w3.org/2000/svg" xmlns:xlink="http://www.w3.org/1999/xlink" x="0px" y="0px"
	 viewBox="0 0 360 360" style="enable-background:new 0 0 360 360;" xml:space="preserve">
<style type="text/css">
	.st0{fill:#FFFFFF;enable-background:new    ;}
	.st1{fill:#FFA4AF;}
	.st2{fill:#FFFFFF;}
</style>
<path class="st0" d="M190.9,353.3h-22.2c-6.6,0-12-5.4-12-12V15.8c0-6.6,5.4-12,12-12h22.2c6.6,0,12,5.4,12,12v325.4
	C202.9,347.9,197.5,353.3,190.9,353.3z"/>
<path class="st1" d="M174,32.8c13.8,6.6,20.7,17.9,25.3,32c1,3,2,7.1,4.2,9.6c0,0,0-63.4-0.4-64.5c-0.4-1.1-3-10.1-14.9-10.1
	c-2.8,0-14.9,0-31.8-0.1v28.2C162.5,28.5,168.5,30.1,174,32.8z"/>
<path class="st1" d="M202.7,135.5c0,7.9-3.3,17.1-5.4,24.6c-8.1,29.3-24.9,55.5-40.9,81.1v118.1c21.6,0,36.6,0.1,36.6,0.1
	s11.6-2.2,10.4-16.8C202.4,328,202.7,135.5,202.7,135.5z M187.2,335.7c-2.8-0.4-6.3,0.1-8.7,1.7c-0.7,0.5-1.2,1.2-1.6,2
	c-0.2,0.3-0.9,2.2-0.9,2.2l-7.8,0.1l5.3-38.4l10.2-0.1l-3.8,26.3l7.5-0.1C187.5,329.3,187.2,335.7,187.2,335.7z"/>
<path class="st1" d="M185.2,303.2l-12.2,0.1l-6.3,38.4l9.3-0.1c0,0,1-1.9,1.1-2.2c0.5-0.8,1-1.4,1.9-2c2.9-1.7,7-2.1,10.4-1.7
	l0.4-6.4l-9,0.1L185.2,303.2z"/>
<path class="st2" d="M193,331.5l-0.7,8.5l-25.2-0.5l0.7-5.9c5-7.4,11-16.3,13.2-25.1c0.5-2.2,1.3-5.4,1.3-5.4l10.8-0.5
	c-2.3,0.2-2.4,6.3-2.8,7.9c-1.5,6.3-5.2,11.5-9,16.5c-0.6,0.8-3.3,5.1-4.2,5.2C176.9,332.1,193,331.5,193,331.5z"/>
</svg>
