<?xml version="1.0" encoding="utf-8"?>
<!-- Generator: Adobe Illustrator 22.1.0, SVG Export Plug-In . SVG Version: 6.00 Build 0)  -->
<svg version="1.1" id="Layer_1" xmlns="http://www.w3.org/2000/svg" xmlns:xlink="http://www.w3.org/1999/xlink" x="0px" y="0px"
	 viewBox="0 0 360 360" style="enable-background:new 0 0 360 360;" xml:space="preserve">
<style type="text/css">
	.st0{fill:#FFF22D;}
</style>
<g>
	<path class="st0" d="M161.5,64.2c15.5-13.9,36.2-27.7,56.4-33.4c6.9-2,14.4-2.5,21.7-1.7v-28C206.7,1.1,155.8,1,120.5,0.9v112.3
		C132.1,95.2,145.5,78.5,161.5,64.2z"/>
	<path class="st0" d="M239,242.4c-12.3,19.6-26.5,37.9-43.8,53.4c-15.5,13.9-36.2,27.7-56.4,33.4c-5.9,1.7-12.1,2.3-18.3,2v27.8
		c34,0.1,84.9,0.2,119.1,0.2V241.5C239.4,241.8,239.2,242.1,239,242.4z"/>
	<path class="st0" d="M141.5,144.1l2.4-28.5l85,1.8c0,0-2.4,20-2.4,20c-16.9,24.8-36.9,54.9-44.3,84.4c-1.8,7.3-4.3,18.2-4.3,18.2
		s-36.4,1.8-36.4,1.8c7.9-0.6,8.1-21.1,9.4-26.5c4.9-21.1,17.5-38.7,30.4-55.6c2-2.7,11.1-17.3,14.2-17.4
		C195.5,142.3,141.5,144.1,141.5,144.1z"/>
</g>
</svg>
