<?xml version="1.0" encoding="utf-8"?>
<!-- Generator: Adobe Illustrator 22.1.0, SVG Export Plug-In . SVG Version: 6.00 Build 0)  -->
<svg version="1.1" id="Layer_1" xmlns="http://www.w3.org/2000/svg" xmlns:xlink="http://www.w3.org/1999/xlink" x="0px" y="0px"
	 viewBox="0 0 360 360" style="enable-background:new 0 0 360 360;" xml:space="preserve">
<style type="text/css">
	.st0{fill:none;}
	.st1{fill:#33A457;}
</style>
<g>
	<path class="st0" d="M138.6,329.9c20.3-5.7,41.1-19.6,56.6-33.5c17.4-15.6,31.7-33.9,44-53.6c0.2-0.3,0.4-0.6,0.5-0.9V28.7
		c-7.3-0.8-14.8-0.3-21.8,1.7c-20.3,5.7-41.1,19.6-56.6,33.5c-16.1,14.4-29.5,31.2-41.2,49.2v218.8
		C126.4,332.2,132.7,331.6,138.6,329.9z M142.1,132.3c9.5,1.4,21.2-0.2,29.2-5.8c2.5-1.7,4-3.9,5.2-6.6c0.5-1.1,3.1-7.3,3.1-7.3
		l26-0.4l-17.8,128.9l-34.2,0.4l12.6-88l-25.3,0.4C141,153.9,142.1,132.3,142.1,132.3z"/>
	<path class="st1" d="M161.4,63.9c15.6-14,36.4-27.8,56.6-33.5c7-2,14.4-2.5,21.8-1.7V0.5c-33-0.1-84.1-0.2-119.6-0.2v112.8
		C131.9,95,145.3,78.3,161.4,63.9z"/>
	<path class="st1" d="M239.3,242.8c-12.3,19.7-26.6,38-44,53.6c-15.6,13.9-36.4,27.8-56.6,33.5c-5.9,1.7-12.2,2.3-18.4,2v27.9
		c34.1,0.1,85.2,0.2,119.6,0.2V242C239.6,242.2,239.4,242.5,239.3,242.8z"/>
	<path class="st1" d="M141.3,144.1l2.4-28.7l85.4,1.8l-2.4,20.1c-17,24.9-37.1,55.1-44.5,84.8c-1.8,7.3-4.3,18.3-4.3,18.3l-36.6,1.8
		c7.9-0.6,8.2-21.1,9.5-26.6c5-21.2,17.5-38.9,30.6-55.9c2-2.7,11.2-17.4,14.2-17.5C195.6,142.3,141.3,144.1,141.3,144.1z"/>
</g>
</svg>
