<?xml version="1.0" encoding="utf-8"?>
<!-- Generator: Adobe Illustrator 22.1.0, SVG Export Plug-In . SVG Version: 6.00 Build 0)  -->
<svg version="1.1" id="Layer_1" xmlns="http://www.w3.org/2000/svg" xmlns:xlink="http://www.w3.org/1999/xlink" x="0px" y="0px"
	 viewBox="0 0 360 360" style="enable-background:new 0 0 360 360;" xml:space="preserve">
<style type="text/css">
	.st0{fill:#9E9226;}
	.st1{fill:#FFFFFF;}
</style>
<g>
	<path class="st0" d="M165.4,1c0,0-11.5,2.2-10.4,16.7c1.1,14.5,0.7,206,0.7,206c0-7.9,3.3-17,5.4-24.5
		c8.1-29.5,25.2-55.8,41.2-81.5c0.9-1.5,1.9-2.9,2.8-4.4V1.1C181.8,1.1,165.4,1,165.4,1z M186.2,51.9L176.1,52l3.7-26.1l-7.5,0.1
		c0,0,0.3-6.4,0.3-6.4c2.8,0.4,6.3-0.1,8.7-1.7c0.7-0.5,1.2-1.1,1.6-1.9c0.2-0.3,0.9-2.2,0.9-2.2l7.7-0.1L186.2,51.9z"/>
	<path class="st0" d="M184.3,326c-13.7-6.6-20.6-17.9-25.2-31.8c-1-3-2-7-4.2-9.5c0,0,0,63.1,0.4,64.2s3,10,14.8,10
		c3,0,16.5,0,35,0.1v-27.8C197.9,330.8,190.8,329.1,184.3,326z"/>
	<path class="st0" d="M182.9,15.9c-0.4,0.8-0.8,1.4-1.6,1.9c-2.4,1.7-5.9,2.1-8.7,1.7c0,0-0.3,6.4-0.3,6.4l7.5-0.1L176.1,52
		l10.1-0.1l5.3-38.3l-7.7,0.1C183.8,13.7,183,15.6,182.9,15.9z"/>
	<path class="st1" d="M171.3,18.5l0.7-8.4l25.1,0.5l-0.7,5.9c-5,7.3-10.9,16.2-13.1,24.9c-0.5,2.2-1.3,5.4-1.3,5.4
		s-10.8,0.5-10.8,0.5c2.3-0.2,2.4-6.2,2.8-7.8c1.5-6.2,5.2-11.4,9-16.4c0.6-0.8,3.3-5.1,4.2-5.1C187.2,18,171.3,18.5,171.3,18.5z"/>
</g>
</svg>
