<?xml version="1.0" encoding="utf-8"?>
<!-- Generator: Adobe Illustrator 22.1.0, SVG Export Plug-In . SVG Version: 6.00 Build 0)  -->
<svg version="1.1" id="Layer_1" xmlns="http://www.w3.org/2000/svg" xmlns:xlink="http://www.w3.org/1999/xlink" x="0px" y="0px"
	 viewBox="0 0 360 360" style="enable-background:new 0 0 360 360;" xml:space="preserve">
<style type="text/css">
	.st0{fill:none;}
	.st1{fill:#00ACEC;}
</style>
<g>
	<path class="st0" d="M138.5,330.5c20.3-5.7,41.1-19.6,56.7-33.6c17.4-15.6,31.8-33.9,44.1-53.7c0.2-0.3,0.4-0.6,0.5-0.9V28.7
		c-7.3-0.8-14.8-0.3-21.8,1.7C197.8,36.1,177,50,161.4,64c-16.1,14.4-29.6,31.2-41.3,49.3v219.2
		C126.3,332.8,132.6,332.2,138.5,330.5z M142,132.6c9.5,1.4,21.2-0.2,29.2-5.8c2.5-1.7,4-3.9,5.3-6.6c0.5-1.1,3.1-7.3,3.1-7.3
		l26.1-0.4l-17.9,129.1l-34.2,0.4l12.7-88.2l-25.3,0.4C140.9,154.2,142,132.6,142,132.6z"/>
	<path class="st1" d="M161.4,64c15.6-14,36.5-27.9,56.7-33.6c7-2,14.5-2.5,21.8-1.7V0.5c-33-0.1-84.3-0.2-119.8-0.2v113
		C131.8,95.2,145.3,78.4,161.4,64z"/>
	<path class="st1" d="M239.4,243.2c-12.3,19.8-26.7,38.1-44.1,53.7c-15.6,14-36.5,27.9-56.7,33.6c-5.9,1.7-12.2,2.3-18.4,2v27.9
		c34.2,0.1,85.4,0.2,119.8,0.2V242.4C239.7,242.7,239.5,243,239.4,243.2z"/>
	<g>
		<path class="st1" d="M205.7,175.4c0.1-1.5,0.2-2.9,0.3-4.4c0-0.1,13.9-5.6,15.3-6.6c11.8-8.8,14.1-29.5,5.9-41.3
			c-6.7-9.6-20.4-12.7-31.4-13.8c-13.8-1.4-28.7,1.9-39.4,10.9c-11,9.3-17,26.5-10.3,39.9c6.7,13.4,13.4,11,13.4,11s0.4,3.1-2.6,4
			c-3,0.8-5.2,1.9-10.9,4.9c-14.6,7.8-16.3,31.9-11.7,45.8c4.4,13.3,18.5,19.1,31.6,19.8c21.2,1.1,42.4-4.6,52.7-24.6
			c6.1-11.8,9.2-30.9-1.5-41.1C216,178.7,205.9,172.1,205.7,175.4z M184.5,220.3c-4.7,6.3-13.6,5.3-15.7-4c-2.4-11,0.9-32.6,12-33.7
			C195.3,181.1,190.1,212.8,184.5,220.3z M192,161.1c-4.6,4.9-13.3,4.1-15.3-3.1c-2.4-8.6,0.9-25.4,11.8-26.3
			C202.6,130.5,197.5,155.2,192,161.1z"/>
	</g>
</g>
</svg>
