<?xml version="1.0" encoding="utf-8"?>
<!-- Generator: Adobe Illustrator 22.1.0, SVG Export Plug-In . SVG Version: 6.00 Build 0)  -->
<svg version="1.1" id="Layer_1" xmlns="http://www.w3.org/2000/svg" xmlns:xlink="http://www.w3.org/1999/xlink" x="0px" y="0px"
	 viewBox="0 0 360 360" style="enable-background:new 0 0 360 360;" xml:space="preserve">
<style type="text/css">
	.st0{fill:#FFF22D;}
</style>
<g>
	<path class="st0" d="M161.5,64.2c15.5-13.9,36.2-27.7,56.4-33.4c6.9-2,14.4-2.5,21.7-1.7v-28C206.7,1.1,155.8,1,120.5,0.9v112.3
		C132.1,95.2,145.5,78.5,161.5,64.2z"/>
	<path class="st0" d="M239,242.4c-12.3,19.6-26.5,37.9-43.8,53.4c-15.5,13.9-36.2,27.7-56.4,33.4c-5.9,1.7-12.1,2.3-18.3,2v27.8
		c34,0.1,84.9,0.2,119.1,0.2V241.5C239.4,241.8,239.2,242.1,239,242.4z"/>
	<g>
		<path class="st0" d="M205.5,175c0.1-1.5,0.2-2.9,0.3-4.4c0-0.1,13.8-5.5,15.2-6.6c11.7-8.7,14-29.4,5.9-41
			c-6.6-9.6-20.3-12.6-31.2-13.7c-13.7-1.4-28.5,1.8-39.2,10.9c-10.9,9.2-16.9,26.3-10.2,39.6c6.7,13.4,13.4,10.9,13.4,10.9
			s0.4,3.1-2.6,4c-3,0.8-5.2,1.8-10.9,4.9c-14.6,7.7-16.2,31.7-11.7,45.5c4.3,13.2,18.4,19,31.4,19.7c21,1.1,42.1-4.6,52.4-24.5
			c6-11.7,9.2-30.7-1.5-40.8C215.8,178.3,205.8,171.7,205.5,175z M184.4,219.6c-4.7,6.3-13.6,5.2-15.6-4c-2.4-11,0.9-32.4,12-33.5
			C195.2,180.7,190,212.1,184.4,219.6z M191.9,160.7c-4.6,4.9-13.3,4.1-15.2-3.1c-2.3-8.6,0.9-25.3,11.7-26.2
			C202.5,130.3,197.4,154.9,191.9,160.7z"/>
	</g>
</g>
</svg>
