<?xml version="1.0" encoding="utf-8"?>
<!-- Generator: Adobe Illustrator 22.1.0, SVG Export Plug-In . SVG Version: 6.00 Build 0)  -->
<svg version="1.1" id="Layer_1" xmlns="http://www.w3.org/2000/svg" xmlns:xlink="http://www.w3.org/1999/xlink" x="0px" y="0px"
	 viewBox="0 0 360 360" style="enable-background:new 0 0 360 360;" xml:space="preserve">
<style type="text/css">
	.st0{fill:#266D3B;}
	.st1{fill:#FFFFFF;}
</style>
<g>
	<path class="st0" d="M165.2-0.4c0,0-11.6,2.2-10.5,16.8s0.7,207.8,0.7,207.8c0-7.9,3.3-17.1,5.4-24.7c8.2-29.7,25.4-56.3,41.6-82.2
		c0.9-1.5,1.9-2.9,2.8-4.4V-0.3C181.9-0.3,165.2-0.4,165.2-0.4z M186.3,50.9L176,51l3.8-26.3l-7.6,0.1l0.3-6.4
		c2.8,0.4,6.3-0.1,8.7-1.7c0.7-0.5,1.2-1.2,1.6-2c0.2-0.3,0.9-2.2,0.9-2.2l7.8-0.1L186.3,50.9z"/>
	<path class="st0" d="M184.3,327.4c-13.8-6.7-20.8-18-25.4-32.1c-1-3-2-7.1-4.2-9.6c0,0,0,63.6,0.4,64.8s3,10.1,15,10.1
		c3,0,16.6,0,35.3,0.1v-28C198.1,332.3,190.8,330.6,184.3,327.4z"/>
	<path class="st0" d="M182.9,14.6c-0.4,0.8-0.8,1.4-1.6,2c-2.4,1.7-5.9,2.1-8.7,1.7l-0.3,6.4l7.6-0.1L176,51l10.2-0.1l5.3-38.6
		l-7.8,0.1C183.8,12.4,183.1,14.3,182.9,14.6z"/>
	<path class="st1" d="M178.3,25.8c0,0-1.9,0.7-3.8-3.1c-1.9-3.8-0.2-8.7,2.9-11.3c3-2.6,7.3-3.5,11.2-3.1c3.1,0.3,7,1.2,8.9,3.9
		c2.3,3.3,1.7,9.2-1.7,11.7c-0.4,0.3-4.3,1.9-4.3,1.9c0,0.4-0.1,0.8-0.1,1.2c0.1-0.9,2.9,0.9,3.2,1.2c3,2.9,2.1,8.3,0.4,11.6
		c-2.9,5.7-8.9,7.3-14.9,7c-3.7-0.2-7.7-1.8-8.9-5.6c-1.3-3.9-0.8-10.8,3.3-13c1.6-0.9,2.2-1.1,3.1-1.4S178.3,25.8,178.3,25.8z"/>
	<path class="st0" d="M186.5,14.7c-3.1,0.2-4,5-3.3,7.4c0.6,2.1,3,2.3,4.3,0.9C189.1,21.3,190.5,14.3,186.5,14.7z"/>
	<path class="st0" d="M184.3,29.1c-3.2,0.3-4.1,6.4-3.4,9.5c0.6,2.6,3.1,2.9,4.4,1.1C187,37.6,188.4,28.7,184.3,29.1z"/>
</g>
</svg>
