<?xml version="1.0" encoding="utf-8"?>
<!-- Generator: Adobe Illustrator 22.1.0, SVG Export Plug-In . SVG Version: 6.00 Build 0)  -->
<svg version="1.1" id="Layer_1" xmlns="http://www.w3.org/2000/svg" xmlns:xlink="http://www.w3.org/1999/xlink" x="0px" y="0px"
	 viewBox="0 0 360 360" style="enable-background:new 0 0 360 360;" xml:space="preserve">
<style type="text/css">
	.st0{fill:#9E9226;}
	.st1{fill:#FFFFFF;}
</style>
<g>
	<path class="st0" d="M165.3,0.5c0,0-11.5,2.2-10.4,16.8c1.1,14.5,0.7,206.6,0.7,206.6c0-7.9,3.3-17,5.4-24.5
		c8.2-29.6,25.2-56,41.3-81.7c0.9-1.5,1.9-2.9,2.8-4.4V0.6C181.8,0.6,165.3,0.5,165.3,0.5z M186.2,51.5l-10.2,0.1l3.8-26.2l-7.5,0.1
		c0,0,0.3-6.4,0.3-6.4c2.8,0.4,6.3-0.1,8.7-1.7c0.7-0.5,1.2-1.2,1.6-2c0.2-0.3,0.9-2.2,0.9-2.2l7.7-0.1L186.2,51.5z"/>
	<path class="st0" d="M184.3,326.4c-13.7-6.6-20.7-17.9-25.3-31.9c-1-3-2-7-4.2-9.5c0,0,0,63.3,0.4,64.4c0.4,1.1,3,10.1,14.9,10.1
		c3,0,16.5,0,35.1,0.1v-27.8C198,331.2,190.8,329.6,184.3,326.4z"/>
	<path class="st0" d="M182.9,15.4c-0.4,0.8-0.8,1.4-1.6,2c-2.4,1.7-5.9,2.1-8.7,1.7c0,0-0.3,6.4-0.3,6.4l7.5-0.1l-3.8,26.2l10.2-0.1
		l5.3-38.4l-7.7,0.1C183.8,13.3,183,15.1,182.9,15.4z"/>
	<path class="st1" d="M178.3,26.6c0,0-1.9,0.7-3.8-3.1c-1.9-3.8-0.2-8.6,2.9-11.2c3-2.6,7.2-3.5,11.1-3.1c3.1,0.3,6.9,1.2,8.8,3.9
		c2.3,3.3,1.7,9.1-1.7,11.6c-0.4,0.3-4.3,1.8-4.3,1.9c0,0.4-0.1,0.8-0.1,1.2c0.1-0.9,2.9,0.9,3.2,1.2c3,2.9,2.1,8.2,0.4,11.6
		c-2.9,5.6-8.9,7.3-14.8,6.9c-3.7-0.2-7.7-1.8-8.9-5.6c-1.3-3.9-0.8-10.7,3.3-12.9c1.6-0.9,2.2-1.1,3.1-1.4
		C178.5,27.5,178.3,26.6,178.3,26.6z"/>
	<path class="st0" d="M186.5,15.5c-3.1,0.2-4,5-3.3,7.4c0.6,2,3,2.3,4.3,0.9C189,22.1,190.4,15.2,186.5,15.5z"/>
	<path class="st0" d="M184.3,29.8c-3.1,0.3-4.1,6.4-3.4,9.5c0.6,2.6,3.1,2.9,4.4,1.1C186.9,38.3,188.4,29.4,184.3,29.8z"/>
</g>
</svg>
