<?xml version="1.0" encoding="utf-8"?>
<!-- Generator: Adobe Illustrator 22.1.0, SVG Export Plug-In . SVG Version: 6.00 Build 0)  -->
<svg version="1.1" id="Layer_1" xmlns="http://www.w3.org/2000/svg" xmlns:xlink="http://www.w3.org/1999/xlink" x="0px" y="0px"
	 viewBox="0 0 360 360" style="enable-background:new 0 0 360 360;" xml:space="preserve">
<style type="text/css">
	.st0{fill:#AEF0FF;}
	.st1{fill:#FFFFFF;}
</style>
<g>
	<path class="st0" d="M174,33.4c13.8,6.6,20.8,18,25.4,32.1c1,3,2,7.1,4.2,9.6c0,0,0-63.5-0.4-64.7c-0.4-1.1-3-10.1-15-10.1
		c-2.8,0-15,0-31.9-0.1v28.2C162.5,29.2,168.5,30.8,174,33.4z"/>
	<path class="st0" d="M202.8,136.4c0,7.9-3.3,17.1-5.4,24.6c-8.1,29.4-24.9,55.6-40.9,81.2v118.3c21.6,0,36.6,0.1,36.6,0.1
		s11.6-2.2,10.5-16.8C202.4,329.3,202.8,136.4,202.8,136.4z M187.2,337c-2.8-0.4-6.3,0.1-8.7,1.7c-0.7,0.5-1.2,1.2-1.6,2
		c-0.2,0.3-0.9,2.2-0.9,2.2l-7.8,0.1l5.3-38.5l10.2-0.1l-3.8,26.3l7.5-0.1C187.5,330.5,187.2,337,187.2,337z"/>
	<path class="st0" d="M183.8,304.3l-10.2,0.1l-5.3,38.5l7.8-0.1c0,0,0.8-1.9,0.9-2.2c0.4-0.8,0.8-1.4,1.6-2c2.4-1.7,5.9-2.1,8.7-1.7
		l0.3-6.4l-7.5,0.1L183.8,304.3z"/>
	<polygon class="st1" points="169.1,299.3 191.7,299.3 191.7,293.9 169.4,293.9 	"/>
	<g>
		<path class="st1" d="M180.6,309.7c2.1,0,2.4,3.7,2.4,3.7l8-0.1c0.7-3.5,0.4-6.9-3.2-8.4c-2.8-1.3-6.3-1.2-9.3-1
			c-4.4,0.3-8.7,2.2-10.8,6.3c-2.8,5.5-3.6,12-3.8,18.1c-0.2,5.5,0.2,12.3,6.9,13.6c4.7,0.9,12.2,1,15.3-3.5
			c3.1-4.6,5.9-11.3,4.1-16.9c-1.4-4.5-7.3-5-11.2-3.9c-1.8,0.5-3.3,2.4-3.3,2.4C175.8,316.1,175.4,309.7,180.6,309.7z M178.6,323.5
			c0.9,0.2,1.4,0.8,1.8,1.5c1.5,3.4-0.1,10.3-4.2,11.3c-2.4,0.6-2.6-2.3-2.6-4.1c0-2.5,0.7-5.3,2.1-7.3
			C176.4,324,177.4,323.3,178.6,323.5z"/>
	</g>
</g>
</svg>
