<?xml version="1.0" encoding="utf-8"?>
<!-- Generator: Adobe Illustrator 22.1.0, SVG Export Plug-In . SVG Version: 6.00 Build 0)  -->
<svg version="1.1" id="Layer_1" xmlns="http://www.w3.org/2000/svg" xmlns:xlink="http://www.w3.org/1999/xlink" x="0px" y="0px"
	 viewBox="0 0 360 360" style="enable-background:new 0 0 360 360;" xml:space="preserve">
<style type="text/css">
	.st0{fill:#FFFFFF;}
	.st1{fill:#6B1A26;}
</style>
<path class="st0" d="M193.2,354.2H167c-6.6,0-12-5.4-12-12V18.3c0-6.6,5.4-12,12-12h26.2c6.6,0,12,5.4,12,12v323.9
	C205.2,348.8,199.8,354.2,193.2,354.2z"/>
<g>
	<path class="st1" d="M165.3,0.3c0,0-11.5,2.2-10.4,16.8c1.1,14.5,0.7,206.7,0.7,206.7c0-7.9,3.3-17.1,5.4-24.6
		c8.2-29.6,25.2-56,41.3-81.8c0.9-1.5,1.9-2.9,2.8-4.4V0.4C181.8,0.3,165.3,0.3,165.3,0.3z M186.2,51.3L176,51.4l3.8-26.2l-7.5,0.1
		l0.3-6.4c2.8,0.4,6.3-0.1,8.7-1.7c0.7-0.5,1.2-1.2,1.6-2c0.2-0.3,0.9-2.2,0.9-2.2l7.7-0.1L186.2,51.3z"/>
	<path class="st1" d="M184.3,326.3c-13.7-6.6-20.7-17.9-25.3-31.9c-1-3-2-7.1-4.2-9.5c0,0,0,63.3,0.4,64.4s3,10.1,14.9,10.1
		c3,0,16.5,0,35.1,0.1v-27.8C198,331.2,190.8,329.5,184.3,326.3z"/>
	<path class="st1" d="M182.9,15.2c-0.4,0.8-0.8,1.4-1.6,2c-2.4,1.7-5.9,2.1-8.7,1.7l-0.3,6.4l7.5-0.1L176,51.4l10.2-0.1l5.3-38.4
		l-7.7,0.1C183.8,13,183,14.9,182.9,15.2z"/>
	<polygon class="st0" points="192.8,51.3 170.3,51.3 170.3,56.7 192.5,56.7 	"/>
	<path class="st0" d="M171.1,37.4l8-0.1c0,0,0.3,3.7,2.3,3.7c5.2,0,4.7-6.4,4.8-10.1c0,0-1.4,1.8-3.3,2.3c-3.8,1.1-9.7,0.6-11.2-3.9
		c-1.8-5.6,1-12.3,4.1-16.9c3-4.4,10.6-4.3,15.2-3.5c6.6,1.3,7,8,6.8,13.5c-0.2,6.1-1,12.5-3.8,18c-2,4.1-6.4,5.9-10.7,6.3
		c-3,0.2-6.4,0.3-9.2-1C170.7,44.2,170.4,40.9,171.1,37.4z"/>
	<path class="st1" d="M181.6,25.6c0.3,0.8,0.9,1.3,1.8,1.5c1.2,0.3,2.2-0.5,2.9-1.4c1.5-2,2.1-4.8,2.1-7.3c0-1.7-0.1-4.6-2.6-4.1
		C181.7,15.4,180.1,22.2,181.6,25.6z"/>
</g>
</svg>
