<?xml version="1.0" encoding="utf-8"?>
<!-- Generator: Adobe Illustrator 22.1.0, SVG Export Plug-In . SVG Version: 6.00 Build 0)  -->
<svg version="1.1" id="Layer_1" xmlns="http://www.w3.org/2000/svg" xmlns:xlink="http://www.w3.org/1999/xlink" x="0px" y="0px"
	 viewBox="0 0 360 360" style="enable-background:new 0 0 360 360;" xml:space="preserve">
<style type="text/css">
	.st0{fill:#59595B;}
	.st1{fill:#FFFFFF;}
	.st2{fill:#FFF22D;}
</style>
<g>
	<path class="st0" d="M285,361H95.7c-6.6,0-12-5.4-12-12V22.6c0-6.6,5.4-12,12-12H285c6.6,0,12,5.4,12,12V349
		C297,355.5,291.6,361,285,361z"/>
	<path class="st1" d="M273.9,349.7H84.6c-6.6,0-12-5.4-12-12V11.4c0-6.6,5.4-12,12-12h189.3c6.6,0,12,5.4,12,12v326.3
		C285.9,344.3,280.5,349.7,273.9,349.7z"/>
	<g>
		<path class="st2" d="M287.9,73.5c0,0,0-63-0.4-64.1c-0.4-1.1-3-10-14.8-10c-11.9,0-190.1-0.4-190.1-0.4S71.1,1.4,72.2,15.7
			c1.1,14.5,0.7,205.7,0.7,205.7c0-7.9,3.3-17,5.4-24.4c8.1-29.4,25.1-55.7,41.1-81.4c12.2-19.6,26.5-37.8,43.7-53.3
			c15.5-13.9,36.2-27.6,56.3-33.3c12.7-3.6,27.1-2.6,39.1,3.2c13.7,6.6,20.6,17.8,25.2,31.8C284.7,67.1,285.7,71.1,287.9,73.5z"/>
		<path class="st2" d="M72.1,282.4c0,0,0,63,0.4,64.1s3,10,14.8,10s190.1,0.4,190.1,0.4s11.5-2.2,10.4-16.7s-0.7-205.7-0.7-205.7
			c0,7.9-3.3,17-5.4,24.4c-8.1,29.4-25.1,55.7-41.1,81.4c-12.2,19.6-26.5,37.8-43.7,53.3c-15.5,13.9-36.2,27.6-56.3,33.3
			c-12.7,3.6-27.1,2.6-39.1-3.2c-13.7-6.6-20.6-17.8-25.2-31.8C75.3,288.8,74.3,284.8,72.1,282.4z"/>
		<g>
			<path class="st2" d="M238,130.2c-0.2-0.2-0.3-0.5-0.5-0.7c-15.5-20.3-43-27.2-66.9-19.5c-22.9,7.4-43.8,25.4-54,47.1
				c-9.1,19.3-9.9,41.6,3.9,61.9c9.6,14.2,24.9,24.4,42.3,25.6c24.8,1.7,51.8-8.2,67.9-27.5C250.6,193.3,257.7,156.6,238,130.2z
				 M132.9,188.4c-4.8-20.3,10.7-42.3,27.6-51.9c14.9-8.5,34.8-11.2,48.5,1.1c0,0-71.7,62.8-71.9,62.9
				C137.4,200.3,133.2,189.6,132.9,188.4z M211,204.9c-12.7,13.5-30.9,20-49.3,16.2c-0.6-0.1-11.5-4.4-10.8-5
				c0.3-0.2,72.2-62.9,72.2-62.9C232.2,171.6,224.1,191.1,211,204.9z"/>
		</g>
		<g>
			<path class="st1" d="M118.4,15.6c0-0.1-0.1-0.1-0.1-0.2c-4.3-5.6-11.9-7.6-18.6-5.4c-6.4,2.1-12.2,7.1-15,13.1
				c-2.5,5.4-2.7,11.5,1.1,17.2c2.7,3.9,6.9,6.8,11.7,7.1c6.9,0.5,14.4-2.3,18.9-7.6C121.9,33,123.8,22.9,118.4,15.6z M89.2,31.8
				c-1.3-5.6,3-11.7,7.7-14.4c4.1-2.4,9.7-3.1,13.5,0.3c0,0-19.9,17.4-20,17.5C90.4,35,89.2,32,89.2,31.8z M110.9,36.4
				c-3.5,3.7-8.6,5.6-13.7,4.5c-0.2,0-3.2-1.2-3-1.4c0.1-0.1,20.1-17.5,20.1-17.5C116.8,27.1,114.5,32.5,110.9,36.4z"/>
		</g>
		<g>
			<path class="st1" d="M273.6,313.4c0-0.1-0.1-0.1-0.1-0.2c-4.3-5.6-11.9-7.6-18.6-5.4c-6.4,2.1-12.2,7.1-15,13.1
				c-2.5,5.4-2.7,11.5,1.1,17.2c2.7,3.9,6.9,6.8,11.7,7.1c6.9,0.5,14.4-2.3,18.9-7.6C277.1,331,279.1,320.7,273.6,313.4z
				 M244.4,329.6c-1.3-5.6,3-11.7,7.7-14.4c4.1-2.4,9.7-3.1,13.5,0.3c0,0-19.9,17.4-20,17.5C245.7,332.9,244.5,329.9,244.4,329.6z
				 M266.1,334.2c-3.5,3.7-8.6,5.6-13.7,4.5c-0.2,0-3.2-1.2-3-1.4c0.1-0.1,20.1-17.5,20.1-17.5C272,324.9,269.8,330.2,266.1,334.2z"
				/>
		</g>
	</g>
</g>
</svg>
