<?xml version="1.0" encoding="utf-8"?>
<!-- Generator: Adobe Illustrator 22.1.0, SVG Export Plug-In . SVG Version: 6.00 Build 0)  -->
<svg version="1.1" id="Layer_1" xmlns="http://www.w3.org/2000/svg" xmlns:xlink="http://www.w3.org/1999/xlink" x="0px" y="0px"
	 viewBox="0 0 360 360" style="enable-background:new 0 0 360 360;" xml:space="preserve">
<style type="text/css">
	.st0{fill:#59595B;}
	.st1{fill:#FFFFFF;}
	.st2{fill:#33A457;}
</style>
<g>
	<path class="st0" d="M285,361H95.7c-6.6,0-12-5.4-12-12V22.7c0-6.6,5.4-12,12-12H285c6.6,0,12,5.4,12,12V349
		C297,355.6,291.6,361,285,361z"/>
	<path class="st1" d="M273.9,349.8H84.6c-6.6,0-12-5.4-12-12V11.5c0-6.6,5.4-12,12-12h189.3c6.6,0,12,5.4,12,12v326.3
		C285.9,344.4,280.5,349.8,273.9,349.8z"/>
	<g>
		<path class="st2" d="M288,73.5c0,0,0-63.1-0.4-64.2c-0.4-1.1-3-10-14.8-10C260.9-0.7,82.5-1,82.5-1S70.9,1.2,72.1,15.7
			c1.1,14.5,0.7,205.9,0.7,205.9c0-7.9,3.3-17,5.4-24.5c8.1-29.5,25.1-55.8,41.2-81.5c12.2-19.6,26.5-37.9,43.8-53.3
			c15.5-13.9,36.2-27.7,56.4-33.3c12.7-3.6,27.1-2.6,39.1,3.2c13.7,6.6,20.6,17.8,25.2,31.8C284.8,67.1,285.8,71.1,288,73.5z"/>
		<path class="st2" d="M72,282.5c0,0,0,63.1,0.4,64.2s3,10,14.8,10s190.3,0.4,190.3,0.4s11.5-2.2,10.4-16.7s-0.7-205.9-0.7-205.9
			c0,7.9-3.3,17-5.4,24.5c-8.1,29.5-25.1,55.8-41.2,81.5c-12.2,19.6-26.5,37.9-43.8,53.3c-15.5,13.9-36.2,27.7-56.4,33.3
			c-12.7,3.6-27.1,2.6-39.1-3.2c-13.7-6.6-20.6-17.8-25.2-31.8C75.2,288.9,74.2,284.9,72,282.5z"/>
		<g>
			<path class="st2" d="M238,130.3c-0.2-0.2-0.3-0.5-0.5-0.7c-15.5-20.3-43.1-27.2-67-19.5c-22.9,7.4-43.8,25.4-54.1,47.2
				c-9.1,19.3-9.9,41.6,3.9,61.9c9.6,14.2,25,24.5,42.3,25.7c24.8,1.7,51.8-8.2,68-27.5C250.7,193.4,257.8,156.6,238,130.3z
				 M132.9,188.5c-4.8-20.3,10.7-42.3,27.6-52c14.9-8.5,34.9-11.2,48.6,1.1c0,0-71.8,62.8-71.9,62.9
				C137.3,200.5,133.1,189.7,132.9,188.5z M211,205c-12.7,13.5-31,20-49.3,16.2c-0.6-0.1-11.5-4.4-10.9-5
				c0.3-0.2,72.3-62.9,72.3-62.9C232.3,171.7,224.1,191.1,211,205z"/>
		</g>
		<g>
			<path class="st1" d="M118.3,15.4c0-0.1-0.1-0.1-0.1-0.2c-4.3-5.6-12-7.6-18.6-5.4c-6.4,2.1-12.2,7.1-15,13.1
				c-2.5,5.4-2.7,11.6,1.1,17.2c2.7,3.9,6.9,6.8,11.8,7.1c6.9,0.5,14.4-2.3,18.9-7.6C121.8,33,123.8,22.8,118.3,15.4z M89.1,31.6
				c-1.3-5.6,3-11.8,7.7-14.4c4.1-2.4,9.7-3.1,13.5,0.3c0,0-19.9,17.5-20,17.5C90.3,35,89.2,31.9,89.1,31.6z M110.8,36.2
				c-3.5,3.7-8.6,5.6-13.7,4.5c-0.2,0-3.2-1.2-3-1.4c0.1-0.1,20.1-17.5,20.1-17.5C116.7,26.9,114.4,32.4,110.8,36.2z"/>
		</g>
		<g>
			<path class="st1" d="M273.7,313.6c0-0.1-0.1-0.1-0.1-0.2c-4.3-5.6-12-7.6-18.6-5.4c-6.4,2.1-12.2,7.1-15,13.1
				c-2.5,5.4-2.7,11.6,1.1,17.2c2.7,3.9,6.9,6.8,11.8,7.1c6.9,0.5,14.4-2.3,18.9-7.6C277.2,331.1,279.2,320.9,273.7,313.6z
				 M244.5,329.8c-1.3-5.6,3-11.8,7.7-14.4c4.1-2.4,9.7-3.1,13.5,0.3c0,0-19.9,17.5-20,17.5C245.7,333.1,244.6,330.1,244.5,329.8z
				 M266.2,334.4c-3.5,3.7-8.6,5.6-13.7,4.5c-0.2,0-3.2-1.2-3-1.4c0.1-0.1,20.1-17.5,20.1-17.5C272.1,325.1,269.8,330.5,266.2,334.4
				z"/>
		</g>
	</g>
</g>
</svg>
