<?xml version="1.0" encoding="utf-8"?>
<!-- Generator: Adobe Illustrator 22.1.0, SVG Export Plug-In . SVG Version: 6.00 Build 0)  -->
<svg version="1.1" id="Layer_1" xmlns="http://www.w3.org/2000/svg" xmlns:xlink="http://www.w3.org/1999/xlink" x="0px" y="0px"
	 viewBox="0 0 360 360" style="enable-background:new 0 0 360 360;" xml:space="preserve">
<style type="text/css">
	.st0{fill:#027DA3;}
	.st1{fill:#FFFFFF;}
</style>
<g>
	<path class="st0" d="M165.2-0.4c0,0-11.6,2.2-10.5,16.9c1.1,14.6,0.7,208,0.7,208c0-7.9,3.4-17.2,5.4-24.7
		c8.2-29.8,25.4-56.3,41.6-82.3c0.9-1.5,1.9-2.9,2.8-4.4V-0.4C181.9-0.4,165.2-0.4,165.2-0.4z M186.3,50.9L176,51l3.8-26.4l-7.6,0.1
		l0.3-6.5c2.8,0.4,6.3-0.1,8.7-1.7c0.7-0.5,1.2-1.2,1.6-2c0.2-0.3,0.9-2.2,0.9-2.2l7.8-0.1L186.3,50.9z"/>
	<path class="st0" d="M184.3,327.6c-13.8-6.7-20.8-18-25.5-32.1c-1-3-2-7.1-4.2-9.6c0,0,0,63.7,0.4,64.8s3,10.1,15,10.1
		c3,0,16.6,0,35.3,0.1v-28C198.1,332.5,190.9,330.8,184.3,327.6z"/>
	<path class="st1" d="M182.9,14.6c-0.4,0.8-0.8,1.4-1.6,2c-2.4,1.7-5.9,2.2-8.7,1.7l-0.3,6.5l7.6-0.1L176,51l10.2-0.1l5.3-38.6
		l-7.8,0.1C183.8,12.4,183.1,14.2,182.9,14.6z"/>
</g>
</svg>
