<?xml version="1.0" encoding="utf-8"?>
<!-- Generator: Adobe Illustrator 22.1.0, SVG Export Plug-In . SVG Version: 6.00 Build 0)  -->
<svg version="1.1" id="Layer_1" xmlns="http://www.w3.org/2000/svg" xmlns:xlink="http://www.w3.org/1999/xlink" x="0px" y="0px"
	 viewBox="0 0 360 360" style="enable-background:new 0 0 360 360;" xml:space="preserve">
<style type="text/css">
	.st0{fill:#FFFFFF;enable-background:new    ;}
	.st1{fill:#FFA4AF;}
	.st2{fill:#FFFFFF;}
</style>
<path class="st0" d="M193.9,353.3h-22.2c-6.6,0-12-5.4-12-12V15.8c0-6.6,5.4-12,12-12h22.2c6.6,0,12,5.4,12,12v325.4
	C205.9,347.9,200.5,353.3,193.9,353.3z"/>
<g>
	<path class="st1" d="M177.3,33.4c13.8,6.6,20.7,17.9,25.3,32c1,3,2,7.1,4.2,9.6c0,0,0-63.4-0.4-64.5c-0.4-1.1-3-10.1-14.9-10.1
		c-2.8,0-14.9,0-31.8-0.1v28.2C165.8,29.1,171.8,30.7,177.3,33.4z"/>
	<path class="st1" d="M206,136.2c0,7.9-3.3,17.1-5.4,24.6c-8.1,29.3-24.9,55.5-40.9,81.1V360c21.6,0,36.6,0.1,36.6,0.1
		s11.6-2.2,10.4-16.8C205.6,328.7,206,136.2,206,136.2z M190.5,336.4c-2.8-0.4-6.3,0.1-8.7,1.7c-0.7,0.5-1.2,1.2-1.6,2
		c-0.2,0.3-0.9,2.2-0.9,2.2l-7.8,0.1l5.3-38.4l10.2-0.1l-3.8,26.3l7.5-0.1C190.8,329.9,190.5,336.4,190.5,336.4z"/>
	<path class="st1" d="M187,303.8l-10.2,0.1l-5.3,38.4l7.8-0.1c0,0,0.8-1.9,0.9-2.2c0.4-0.8,0.8-1.4,1.6-2c2.4-1.7,5.9-2.1,8.7-1.7
		l0.3-6.4l-7.5,0.1L187,303.8z"/>
	<path class="st2" d="M183.3,330.3l8.6-0.1c-0.2,3-1.4,5.6-3.5,7.8c-2.1,2.2-5.2,3-8.1,3.1c-3.5,0.1-8.9,0.1-10.5-3.7
		c-0.8-1.7-0.8-4-0.7-5.8c0.1-1.4,0.4-2.9,1.1-4.1c1.1-1.8,3.2-2.6,4.9-3.7c-0.3-0.3-1.1-0.4-1.5-0.6c-2-0.9-2.9-2.8-3-4.9
		c-0.2-3.2,0.7-6.5,2.6-9.1c2.3-3,5.4-4,9-4.3c0.9-0.1,1.9-0.1,2.8-0.2c1.8-0.1,3.8,0,5.5,0.8c2.1,1,3.7,3.1,4,5.4
		c0.2,1.6,0,3.4,0,5.1l-8.9-0.1v-3.6c0-2-2.1-2.6-3.7-1.8c-1.4,0.8-2,2.4-2.3,3.9c-0.5,2.6-0.4,6.3,3.2,6.3c1.2,0,2.2-0.1,2.2-0.1
		s-0.3,5.5-0.4,5.6c0,0.1-2.8,0.1-3,0.1c-1.4,0.1-2.5,0.5-3.1,2c-0.6,1.7-0.8,3.6-0.4,5.3c0.1,0.6,0.4,1.1,0.8,1.5
		c0.5,0.5,1.4,0.4,1.9,0.2C182.6,334.6,183.1,332,183.3,330.3z"/>
</g>
</svg>
