<?xml version="1.0" encoding="utf-8"?>
<!-- Generator: Adobe Illustrator 22.1.0, SVG Export Plug-In . SVG Version: 6.00 Build 0)  -->
<svg version="1.1" id="Layer_1" xmlns="http://www.w3.org/2000/svg" xmlns:xlink="http://www.w3.org/1999/xlink" x="0px" y="0px"
	 viewBox="0 0 360 360" style="enable-background:new 0 0 360 360;" xml:space="preserve">
<style type="text/css">
	.st0{fill:none;}
	.st1{fill:#00ACEC;}
</style>
<g>
	<path class="st0" d="M138.7,329.3c20.2-5.7,41-19.5,56.5-33.5c17.3-15.5,31.6-33.8,43.9-53.5c0.2-0.3,0.4-0.6,0.5-0.9V28.6
		c-7.3-0.8-14.8-0.3-21.7,1.7c-20.2,5.7-41,19.5-56.5,33.5c-16,14.4-29.5,31.1-41.1,49.1v218.4C126.5,331.6,132.8,331,138.7,329.3z
		 M142.2,132.1c9.4,1.4,21.1-0.2,29.1-5.8c2.5-1.7,4-3.9,5.2-6.6c0.5-1.1,3.1-7.3,3.1-7.3l26-0.4l-17.8,128.7l-34.1,0.4l12.6-87.9
		l-25.2,0.4C141,153.6,142.2,132.1,142.2,132.1z"/>
	<path class="st1" d="M161.4,63.8C177,49.8,197.7,36,218,30.3c7-2,14.4-2.5,21.7-1.7V0.5c-32.9-0.1-84-0.2-119.4-0.2v112.6
		C132,94.9,145.4,78.1,161.4,63.8z"/>
	<path class="st1" d="M239.2,242.4c-12.3,19.7-26.6,38-43.9,53.5c-15.6,13.9-36.3,27.8-56.5,33.5c-5.9,1.7-12.2,2.3-18.4,2v27.8
		c34.1,0.1,85.1,0.2,119.4,0.2V241.5C239.5,241.8,239.3,242.1,239.2,242.4z"/>
	<path class="st1" d="M174.6,148.2l-31.6,0.4c0.7-11.1,5.1-20.4,12.8-28.4s18.9-10.9,29.7-11.3c12.7-0.4,32.5-0.2,38.5,13.5
		c2.8,6.3,3,14.6,2.6,21.4c-0.3,5.2-1.3,10.6-4,15.1c-4,6.6-11.7,9.6-17.8,13.6c1.2,1,3.9,1.3,5.5,2.1c7.2,3.2,10.6,10.1,11.1,17.9
		c0.8,11.7-2.5,23.9-9.6,33.3c-8.2,10.8-19.9,14.6-33,15.7c-3.4,0.3-6.9,0.5-10.3,0.7c-6.6,0.4-14.1,0-20.1-2.9
		c-7.7-3.7-13.5-11.4-14.7-19.8c-0.9-6-0.1-12.5,0-18.6l32.6,0.4v13.2c0,7.1,7.7,9.5,13.4,6.4c5.2-2.8,7.3-8.9,8.3-14.4
		c1.7-9.5,1.6-22.9-11.5-22.9c-4.5,0-8.2,0.4-8.2,0.4s1.3-20,1.3-20.5c0-0.2,10.2-0.5,11.1-0.5c5.1-0.2,9.2-1.8,11.2-7.1
		c2.3-6.2,2.9-13,1.4-19.5c-0.5-2-1.4-4-2.9-5.5c-2-1.9-5.1-1.3-7-0.6C177.3,132.7,175.2,142.1,174.6,148.2z"/>
</g>
</svg>
