<?xml version="1.0" encoding="utf-8"?>
<!-- Generator: Adobe Illustrator 22.1.0, SVG Export Plug-In . SVG Version: 6.00 Build 0)  -->
<svg version="1.1" id="Layer_1" xmlns="http://www.w3.org/2000/svg" xmlns:xlink="http://www.w3.org/1999/xlink" x="0px" y="0px"
	 viewBox="0 0 360 360" style="enable-background:new 0 0 360 360;" xml:space="preserve">
<style type="text/css">
	.st0{fill:#027DA3;}
	.st1{fill:#FFFFFF;}
</style>
<g>
	<path class="st0" d="M165.3-0.4c0,0-11.6,2.2-10.5,16.8s0.7,207.4,0.7,207.4c0-7.9,3.3-17.1,5.4-24.6c8.2-29.7,25.3-56.2,41.5-82.1
		c0.9-1.5,1.9-2.9,2.8-4.4v-113C181.9-0.3,165.3-0.4,165.3-0.4z M186.3,50.8L176,50.9l3.8-26.3l-7.5,0.1l0.3-6.4
		c2.8,0.4,6.3-0.1,8.7-1.7c0.7-0.5,1.2-1.2,1.6-2c0.2-0.3,0.9-2.2,0.9-2.2l7.8-0.1L186.3,50.8z"/>
	<path class="st0" d="M184.3,326.8c-13.8-6.6-20.8-18-25.4-32.1c-1-3-2-7.1-4.2-9.6c0,0,0,63.5,0.4,64.7c0.4,1.1,3,10.1,14.9,10.1
		c3,0,16.6,0,35.2,0.1v-27.9C198,331.7,190.8,330,184.3,326.8z"/>
	<path class="st0" d="M182.9,14.6c-0.4,0.8-0.8,1.4-1.6,2c-2.4,1.7-5.9,2.1-8.7,1.7l-0.3,6.4l7.5-0.1L176,50.9l10.2-0.1l5.3-38.5
		l-7.8,0.1C183.8,12.4,183,14.3,182.9,14.6z"/>
	<path class="st1" d="M180.4,23.8l-8.6,0.1c0.2-3,1.4-5.6,3.5-7.8s5.2-3,8.1-3.1c3.5-0.1,8.9-0.1,10.5,3.7c0.8,1.7,0.8,4,0.7,5.9
		c-0.1,1.4-0.4,2.9-1.1,4.1c-1.1,1.8-3.2,2.6-4.9,3.7c0.3,0.3,1.1,0.4,1.5,0.6c2,0.9,2.9,2.8,3,4.9c0.2,3.2-0.7,6.6-2.6,9.1
		c-2.3,3-5.4,4-9,4.3c-0.9,0.1-1.9,0.1-2.8,0.2c-1.8,0.1-3.9,0-5.5-0.8c-2.1-1-3.7-3.1-4-5.4c-0.2-1.6,0-3.4,0-5.1l8.9,0.1v3.6
		c0,2,2.1,2.6,3.7,1.8c1.4-0.8,2-2.4,2.3-3.9c0.5-2.6,0.4-6.3-3.2-6.3c-1.2,0-2.2,0.1-2.2,0.1s0.3-5.5,0.4-5.6c0-0.1,2.8-0.1,3-0.1
		c1.4-0.1,2.5-0.5,3.1-2c0.6-1.7,0.8-3.6,0.4-5.3c-0.1-0.6-0.4-1.1-0.8-1.5c-0.5-0.5-1.4-0.4-1.9-0.2
		C181.1,19.5,180.5,22.1,180.4,23.8z"/>
</g>
</svg>
