<?xml version="1.0" encoding="utf-8"?>
<!-- Generator: Adobe Illustrator 22.1.0, SVG Export Plug-In . SVG Version: 6.00 Build 0)  -->
<svg version="1.1" id="Layer_1" xmlns="http://www.w3.org/2000/svg" xmlns:xlink="http://www.w3.org/1999/xlink" x="0px" y="0px"
	 viewBox="0 0 360 360" style="enable-background:new 0 0 360 360;" xml:space="preserve">
<style type="text/css">
	.st0{fill:#027DA3;}
	.st1{fill:#FFFFFF;}
</style>
<g>
	<path class="st0" d="M165.3,0.3c0,0-11.5,2.2-10.4,16.8c1.1,14.5,0.7,206.7,0.7,206.7c0-7.9,3.3-17.1,5.4-24.6
		c8.2-29.6,25.2-56,41.3-81.8c0.9-1.5,1.9-2.9,2.8-4.4V0.4C181.8,0.3,165.3,0.3,165.3,0.3z M186.2,51.3L176,51.4l3.8-26.2l-7.5,0.1
		l0.3-6.4c2.8,0.4,6.3-0.1,8.7-1.7c0.7-0.5,1.2-1.2,1.6-2c0.2-0.3,0.9-2.2,0.9-2.2l7.7-0.1L186.2,51.3z"/>
	<path class="st0" d="M184.3,326.3c-13.7-6.6-20.7-17.9-25.3-31.9c-1-3-2-7.1-4.2-9.5c0,0,0,63.3,0.4,64.4s3,10.1,14.9,10.1
		c3,0,16.5,0,35.1,0.1v-27.8C198,331.2,190.8,329.5,184.3,326.3z"/>
	<path class="st0" d="M182.9,15.2c-0.4,0.8-0.8,1.4-1.6,2c-2.4,1.7-5.9,2.1-8.7,1.7l-0.3,6.4l7.5-0.1L176,51.4l10.2-0.1l5.3-38.4
		l-7.7,0.1C183.8,13,183,14.9,182.9,15.2z"/>
	<path class="st1" d="M171.3,17.8l0.7-8.5l25.2,0.5l-0.7,5.9c-5,7.4-11,16.3-13.1,25c-0.5,2.2-1.3,5.4-1.3,5.4l-10.8,0.5
		c2.3-0.2,2.4-6.2,2.8-7.9c1.5-6.3,5.2-11.5,9-16.5c0.6-0.8,3.3-5.1,4.2-5.2C187.3,17.3,171.3,17.8,171.3,17.8z"/>
</g>
</svg>
