<?xml version="1.0" encoding="utf-8"?>
<!-- Generator: Adobe Illustrator 22.1.0, SVG Export Plug-In . SVG Version: 6.00 Build 0)  -->
<svg version="1.1" id="Layer_1" xmlns="http://www.w3.org/2000/svg" xmlns:xlink="http://www.w3.org/1999/xlink" x="0px" y="0px"
	 viewBox="0 0 360 360" style="enable-background:new 0 0 360 360;" xml:space="preserve">
<style type="text/css">
	.st0{fill:#FFFFFF;}
	.st1{fill:none;}
	.st2{fill:#CC2229;}
</style>
<path class="st0" d="M227.9,360h-96.5c-6.6,0-12-5.4-12-12V17.8c0-6.6,5.4-12,12-12h96.5c6.6,0,12,5.4,12,12V348
	C239.9,354.6,234.5,360,227.9,360z"/>
<g>
	<path class="st1" d="M138.6,329.3c20.3-5.7,41.1-19.6,56.6-33.5c17.4-15.6,31.7-33.9,44-53.6c0.2-0.3,0.4-0.6,0.5-0.9V28
		c-7.3-0.8-14.8-0.3-21.8,1.7c-20.3,5.7-41.1,19.6-56.6,33.5c-16.1,14.4-29.5,31.2-41.2,49.2v218.8
		C126.4,331.6,132.7,331,138.6,329.3z M142.1,131.7c9.5,1.4,21.2-0.2,29.2-5.8c2.5-1.7,4-3.9,5.2-6.6c0.5-1.1,3.1-7.3,3.1-7.3
		l26-0.4l-17.8,128.9l-34.2,0.4l12.6-88l-25.3,0.4C141,153.3,142.1,131.7,142.1,131.7z"/>
	<path class="st2" d="M161.4,63.2C177,49.3,197.8,35.4,218,29.7c7-2,14.4-2.5,21.8-1.7V-0.1c-33-0.1-84.1-0.2-119.6-0.2v112.8
		C131.9,94.4,145.3,77.6,161.4,63.2z"/>
	<path class="st2" d="M239.3,242.2c-12.3,19.7-26.6,38-44,53.6c-15.6,13.9-36.4,27.8-56.6,33.5c-5.9,1.7-12.2,2.3-18.4,2v27.9
		c34.1,0.1,85.2,0.2,119.6,0.2V241.3C239.6,241.6,239.4,241.9,239.3,242.2z"/>
	<polygon class="st2" points="208.9,246.6 135.4,246.6 135.4,257.4 207.9,257.4 	"/>
	<g>
		<path class="st2" d="M206.7,101.5c-16.1-3-42.3-3.3-52.7,12c-10.8,15.9-20.4,39-14.3,58.5c5,15.6,25.4,17.2,38.7,13.4
			c6.3-1.8,11.3-8.1,11.3-8.1c-0.4,12.8,1.1,34.9-16.8,34.9c-7.2,0-8.1-12.7-8.1-12.7l-27.6,0.5c-2.5,12-1.3,23.7,11,29.2
			c9.8,4.3,21.7,4.2,32,3.4c15.1-1.2,30.1-7.5,37.2-21.7c9.6-19.1,12.3-41.3,13.1-62.4C231.1,129.2,229.7,105.8,206.7,101.5z
			 M189.9,159.6c-2.3,3.2-5.9,5.8-10.1,4.9c-3-0.6-4.9-2.6-6.1-5.2c-5.3-11.8,0.4-35.7,14.6-38.9c8.4-1.9,9,8,9,14.1
			C197.3,142.9,195,152.5,189.9,159.6z"/>
	</g>
</g>
</svg>
