<?xml version="1.0" encoding="utf-8"?>
<!-- Generator: Adobe Illustrator 22.1.0, SVG Export Plug-In . SVG Version: 6.00 Build 0)  -->
<svg version="1.1" id="Layer_1" xmlns="http://www.w3.org/2000/svg" xmlns:xlink="http://www.w3.org/1999/xlink" x="0px" y="0px"
	 viewBox="0 0 360 360" style="enable-background:new 0 0 360 360;" xml:space="preserve">
<style type="text/css">
	.st0{fill:#59595B;}
	.st1{fill:#FFFFFF;}
	.st2{fill:#00ACEC;}
</style>
<g>
	<path class="st0" d="M285,361.4H95.7c-6.6,0-12-5.4-12-12V23.1c0-6.6,5.4-12,12-12H285c6.6,0,12,5.4,12,12v326.3
		C297,356,291.6,361.4,285,361.4z"/>
	<path class="st1" d="M273.9,350.2H84.6c-6.6,0-12-5.4-12-12V11.9c0-6.6,5.4-12,12-12h189.3c6.6,0,12,5.4,12,12v326.3
		C285.9,344.8,280.5,350.2,273.9,350.2z"/>
	<g>
		<path class="st2" d="M288.5,73.5c0,0,0-63.4-0.4-64.5s-3-10.1-14.9-10.1S82-1.4,82-1.4S70.5,0.8,71.6,15.3s0.7,206.8,0.7,206.8
			c0-7.9,3.3-17.1,5.4-24.6c8.2-29.6,25.3-56,41.4-81.8c12.3-19.7,26.6-38,44-53.6c15.6-13.9,36.4-27.8,56.6-33.5
			c12.8-3.6,27.2-2.6,39.3,3.2c13.7,6.6,20.7,17.9,25.3,32C285.3,67,286.3,71,288.5,73.5z"/>
		<path class="st2" d="M71.5,283.3c0,0,0,63.4,0.4,64.5s3,10.1,14.9,10.1s191.2,0.4,191.2,0.4s11.6-2.2,10.4-16.8
			c-1.1-14.5-0.7-206.8-0.7-206.8c0,7.9-3.3,17.1-5.4,24.6c-8.2,29.6-25.3,56-41.4,81.8c-12.3,19.7-26.6,38-44,53.6
			c-15.6,13.9-36.4,27.8-56.6,33.5c-12.8,3.6-27.2,2.6-39.3-3.2c-13.7-6.6-20.7-17.9-25.3-32C74.7,289.8,73.7,285.8,71.5,283.3z"/>
		<g>
			<path class="st2" d="M238.3,130.5c-0.2-0.2-0.3-0.5-0.5-0.7c-15.6-20.4-43.2-27.3-67.3-19.6c-23,7.5-44,25.6-54.3,47.4
				c-9.2,19.4-9.9,41.8,3.9,62.2c9.7,14.3,25.1,24.6,42.5,25.8c24.9,1.7,52-8.2,68.3-27.6C251,193.9,258.1,156.9,238.3,130.5z
				 M132.7,189c-4.8-20.4,10.8-42.5,27.7-52.2c15-8.6,35-11.3,48.8,1.1c0,0-72.1,63.1-72.2,63.2C137.2,201,132.9,190.1,132.7,189z
				 M211.1,205.6c-12.7,13.5-31.1,20.1-49.6,16.3c-0.6-0.1-11.6-4.4-10.9-5c0.3-0.2,72.6-63.2,72.6-63.2
				C232.5,172,224.3,191.6,211.1,205.6z"/>
		</g>
		<g>
			<path class="st1" d="M118,15.1c0-0.1-0.1-0.1-0.1-0.2c-4.3-5.7-12-7.6-18.7-5.4c-6.4,2.1-12.2,7.1-15.1,13.2
				c-2.6,5.4-2.8,11.6,1.1,17.3c2.7,4,7,6.8,11.8,7.2c6.9,0.5,14.5-2.3,19-7.7C121.6,32.7,123.5,22.5,118,15.1z M88.7,31.4
				c-1.3-5.7,3-11.8,7.7-14.5c4.2-2.4,9.7-3.1,13.6,0.3c0,0-20,17.5-20.1,17.6C89.9,34.7,88.8,31.7,88.7,31.4z M110.5,36
				c-3.5,3.8-8.6,5.6-13.8,4.5c-0.2,0-3.2-1.2-3-1.4c0.1-0.1,20.2-17.6,20.2-17.6C116.4,26.7,114.1,32.1,110.5,36z"/>
		</g>
		<g>
			<path class="st1" d="M274.1,314.6c0-0.1-0.1-0.1-0.1-0.2c-4.3-5.7-12-7.6-18.7-5.4c-6.4,2.1-12.2,7.1-15.1,13.2
				c-2.6,5.4-2.8,11.6,1.1,17.3c2.7,4,7,6.8,11.8,7.2c6.9,0.5,14.5-2.3,19-7.7C277.7,332.2,279.6,321.9,274.1,314.6z M244.8,330.8
				c-1.3-5.7,3-11.8,7.7-14.5c4.2-2.4,9.7-3.1,13.6,0.3c0,0-20,17.5-20.1,17.6C246,334.2,244.9,331.1,244.8,330.8z M266.6,335.4
				c-3.5,3.8-8.6,5.6-13.8,4.5c-0.2,0-3.2-1.2-3-1.4c0.1-0.1,20.2-17.6,20.2-17.6C272.5,326.1,270.2,331.6,266.6,335.4z"/>
		</g>
	</g>
</g>
</svg>
